<svg xmlns="http://www.w3.org/2000/svg" xmlns:xlink="http://www.w3.org/1999/xlink" width="406" zoomAndPan="magnify" viewBox="0 0 304.5 125.999998" height="168" preserveAspectRatio="xMidYMid meet" version="1.0"><defs><g/><clipPath id="2441097b59"><path d="M 24.757812 114.871094 L 138.535156 114.871094 L 138.535156 119.75 L 24.757812 119.75 Z M 24.757812 114.871094 " clip-rule="nonzero"/></clipPath><linearGradient x1="0.00567865" gradientTransform="matrix(0.0190519, 0, 0, 0.0190519, 24.758762, 114.872283)" y1="128" x2="5972.005934" gradientUnits="userSpaceOnUse" y2="128" id="83825308c0"><stop stop-opacity="1" stop-color="rgb(31.799316%, 43.899536%, 99.998474%)" offset="0"/><stop stop-opacity="1" stop-color="rgb(32.064819%, 43.884277%, 99.908447%)" offset="0.00390625"/><stop stop-opacity="1" stop-color="rgb(32.331848%, 43.869019%, 99.81842%)" offset="0.0078125"/><stop stop-opacity="1" stop-color="rgb(32.597351%, 43.85376%, 99.728394%)" offset="0.0117187"/><stop stop-opacity="1" stop-color="rgb(32.86438%, 43.838501%, 99.638367%)" offset="0.015625"/><stop stop-opacity="1" stop-color="rgb(33.129883%, 43.823242%, 99.54834%)" offset="0.0195312"/><stop stop-opacity="1" stop-color="rgb(33.396912%, 43.807983%, 99.458313%)" offset="0.0234375"/><stop stop-opacity="1" stop-color="rgb(33.66394%, 43.792725%, 99.36676%)" offset="0.0273437"/><stop stop-opacity="1" stop-color="rgb(33.930969%, 43.777466%, 99.276733%)" offset="0.03125"/><stop stop-opacity="1" stop-color="rgb(34.196472%, 43.762207%, 99.186707%)" offset="0.0351562"/><stop stop-opacity="1" stop-color="rgb(34.463501%, 43.746948%, 99.09668%)" offset="0.0390625"/><stop stop-opacity="1" stop-color="rgb(34.729004%, 43.731689%, 99.006653%)" offset="0.0429687"/><stop stop-opacity="1" stop-color="rgb(34.996033%, 43.716431%, 98.916626%)" offset="0.046875"/><stop stop-opacity="1" stop-color="rgb(35.261536%, 43.701172%, 98.826599%)" offset="0.0507812"/><stop stop-opacity="1" stop-color="rgb(35.528564%, 43.685913%, 98.736572%)" offset="0.0546875"/><stop stop-opacity="1" stop-color="rgb(35.794067%, 43.670654%, 98.64502%)" offset="0.0585937"/><stop stop-opacity="1" stop-color="rgb(36.061096%, 43.655396%, 98.554993%)" offset="0.0625"/><stop stop-opacity="1" stop-color="rgb(36.326599%, 43.640137%, 98.464966%)" offset="0.0664062"/><stop stop-opacity="1" stop-color="rgb(36.593628%, 43.624878%, 98.374939%)" offset="0.0703125"/><stop stop-opacity="1" stop-color="rgb(36.860657%, 43.609619%, 98.284912%)" offset="0.0742188"/><stop stop-opacity="1" stop-color="rgb(37.127686%, 43.59436%, 98.194885%)" offset="0.078125"/><stop stop-opacity="1" stop-color="rgb(37.393188%, 43.579102%, 98.104858%)" offset="0.0820312"/><stop stop-opacity="1" stop-color="rgb(37.660217%, 43.563843%, 98.014832%)" offset="0.0859375"/><stop stop-opacity="1" stop-color="rgb(37.92572%, 43.548584%, 97.923279%)" offset="0.0898438"/><stop stop-opacity="1" stop-color="rgb(38.192749%, 43.533325%, 97.833252%)" offset="0.09375"/><stop stop-opacity="1" stop-color="rgb(38.458252%, 43.518066%, 97.743225%)" offset="0.0976562"/><stop stop-opacity="1" stop-color="rgb(38.725281%, 43.502808%, 97.653198%)" offset="0.101562"/><stop stop-opacity="1" stop-color="rgb(38.990784%, 43.487549%, 97.563171%)" offset="0.105469"/><stop stop-opacity="1" stop-color="rgb(39.257812%, 43.47229%, 97.473145%)" offset="0.109375"/><stop stop-opacity="1" stop-color="rgb(39.523315%, 43.457031%, 97.381592%)" offset="0.113281"/><stop stop-opacity="1" stop-color="rgb(39.790344%, 43.441772%, 97.291565%)" offset="0.117188"/><stop stop-opacity="1" stop-color="rgb(40.057373%, 43.426514%, 97.201538%)" offset="0.121094"/><stop stop-opacity="1" stop-color="rgb(40.324402%, 43.411255%, 97.111511%)" offset="0.125"/><stop stop-opacity="1" stop-color="rgb(40.589905%, 43.395996%, 97.021484%)" offset="0.128906"/><stop stop-opacity="1" stop-color="rgb(40.856934%, 43.380737%, 96.931458%)" offset="0.132812"/><stop stop-opacity="1" stop-color="rgb(41.122437%, 43.365479%, 96.841431%)" offset="0.136719"/><stop stop-opacity="1" stop-color="rgb(41.389465%, 43.35022%, 96.751404%)" offset="0.140625"/><stop stop-opacity="1" stop-color="rgb(41.654968%, 43.334961%, 96.659851%)" offset="0.144531"/><stop stop-opacity="1" stop-color="rgb(41.921997%, 43.319702%, 96.569824%)" offset="0.148438"/><stop stop-opacity="1" stop-color="rgb(42.1875%, 43.304443%, 96.479797%)" offset="0.152344"/><stop stop-opacity="1" stop-color="rgb(42.454529%, 43.289185%, 96.389771%)" offset="0.15625"/><stop stop-opacity="1" stop-color="rgb(42.720032%, 43.273926%, 96.299744%)" offset="0.160156"/><stop stop-opacity="1" stop-color="rgb(42.987061%, 43.258667%, 96.209717%)" offset="0.164062"/><stop stop-opacity="1" stop-color="rgb(43.254089%, 43.243408%, 96.11969%)" offset="0.167969"/><stop stop-opacity="1" stop-color="rgb(43.521118%, 43.229675%, 96.029663%)" offset="0.171875"/><stop stop-opacity="1" stop-color="rgb(43.786621%, 43.214417%, 95.93811%)" offset="0.175781"/><stop stop-opacity="1" stop-color="rgb(44.05365%, 43.199158%, 95.848083%)" offset="0.179688"/><stop stop-opacity="1" stop-color="rgb(44.319153%, 43.183899%, 95.758057%)" offset="0.183594"/><stop stop-opacity="1" stop-color="rgb(44.586182%, 43.16864%, 95.66803%)" offset="0.1875"/><stop stop-opacity="1" stop-color="rgb(44.851685%, 43.153381%, 95.578003%)" offset="0.191406"/><stop stop-opacity="1" stop-color="rgb(45.118713%, 43.138123%, 95.487976%)" offset="0.195312"/><stop stop-opacity="1" stop-color="rgb(45.384216%, 43.122864%, 95.397949%)" offset="0.199219"/><stop stop-opacity="1" stop-color="rgb(45.651245%, 43.107605%, 95.307922%)" offset="0.203125"/><stop stop-opacity="1" stop-color="rgb(45.916748%, 43.092346%, 95.21637%)" offset="0.207031"/><stop stop-opacity="1" stop-color="rgb(46.183777%, 43.077087%, 95.126343%)" offset="0.210938"/><stop stop-opacity="1" stop-color="rgb(46.450806%, 43.061829%, 95.036316%)" offset="0.214844"/><stop stop-opacity="1" stop-color="rgb(46.717834%, 43.04657%, 94.946289%)" offset="0.21875"/><stop stop-opacity="1" stop-color="rgb(46.983337%, 43.031311%, 94.856262%)" offset="0.222656"/><stop stop-opacity="1" stop-color="rgb(47.250366%, 43.016052%, 94.766235%)" offset="0.226562"/><stop stop-opacity="1" stop-color="rgb(47.515869%, 43.000793%, 94.676208%)" offset="0.230469"/><stop stop-opacity="1" stop-color="rgb(47.782898%, 42.985535%, 94.586182%)" offset="0.234375"/><stop stop-opacity="1" stop-color="rgb(48.048401%, 42.970276%, 94.494629%)" offset="0.238281"/><stop stop-opacity="1" stop-color="rgb(48.31543%, 42.955017%, 94.404602%)" offset="0.242188"/><stop stop-opacity="1" stop-color="rgb(48.580933%, 42.939758%, 94.314575%)" offset="0.246094"/><stop stop-opacity="1" stop-color="rgb(48.847961%, 42.9245%, 94.224548%)" offset="0.25"/><stop stop-opacity="1" stop-color="rgb(49.113464%, 42.909241%, 94.134521%)" offset="0.253906"/><stop stop-opacity="1" stop-color="rgb(49.380493%, 42.893982%, 94.044495%)" offset="0.257812"/><stop stop-opacity="1" stop-color="rgb(49.647522%, 42.878723%, 93.952942%)" offset="0.261719"/><stop stop-opacity="1" stop-color="rgb(49.914551%, 42.863464%, 93.862915%)" offset="0.265625"/><stop stop-opacity="1" stop-color="rgb(50.180054%, 42.848206%, 93.772888%)" offset="0.269531"/><stop stop-opacity="1" stop-color="rgb(50.447083%, 42.832947%, 93.682861%)" offset="0.273438"/><stop stop-opacity="1" stop-color="rgb(50.712585%, 42.817688%, 93.592834%)" offset="0.277344"/><stop stop-opacity="1" stop-color="rgb(50.979614%, 42.802429%, 93.502808%)" offset="0.28125"/><stop stop-opacity="1" stop-color="rgb(51.245117%, 42.78717%, 93.412781%)" offset="0.285156"/><stop stop-opacity="1" stop-color="rgb(51.512146%, 42.771912%, 93.322754%)" offset="0.289062"/><stop stop-opacity="1" stop-color="rgb(51.777649%, 42.756653%, 93.231201%)" offset="0.292969"/><stop stop-opacity="1" stop-color="rgb(52.044678%, 42.741394%, 93.141174%)" offset="0.296875"/><stop stop-opacity="1" stop-color="rgb(52.310181%, 42.726135%, 93.051147%)" offset="0.300781"/><stop stop-opacity="1" stop-color="rgb(52.577209%, 42.710876%, 92.961121%)" offset="0.304688"/><stop stop-opacity="1" stop-color="rgb(52.844238%, 42.695618%, 92.871094%)" offset="0.308594"/><stop stop-opacity="1" stop-color="rgb(53.111267%, 42.680359%, 92.781067%)" offset="0.3125"/><stop stop-opacity="1" stop-color="rgb(53.37677%, 42.6651%, 92.69104%)" offset="0.316406"/><stop stop-opacity="1" stop-color="rgb(53.643799%, 42.649841%, 92.601013%)" offset="0.320312"/><stop stop-opacity="1" stop-color="rgb(53.909302%, 42.634583%, 92.50946%)" offset="0.324219"/><stop stop-opacity="1" stop-color="rgb(54.176331%, 42.619324%, 92.419434%)" offset="0.328125"/><stop stop-opacity="1" stop-color="rgb(54.441833%, 42.604065%, 92.329407%)" offset="0.332031"/><stop stop-opacity="1" stop-color="rgb(54.708862%, 42.588806%, 92.23938%)" offset="0.335937"/><stop stop-opacity="1" stop-color="rgb(54.974365%, 42.573547%, 92.149353%)" offset="0.339844"/><stop stop-opacity="1" stop-color="rgb(55.241394%, 42.558289%, 92.059326%)" offset="0.34375"/><stop stop-opacity="1" stop-color="rgb(55.506897%, 42.54303%, 91.969299%)" offset="0.347656"/><stop stop-opacity="1" stop-color="rgb(55.773926%, 42.527771%, 91.879272%)" offset="0.351562"/><stop stop-opacity="1" stop-color="rgb(56.040955%, 42.512512%, 91.78772%)" offset="0.355469"/><stop stop-opacity="1" stop-color="rgb(56.307983%, 42.497253%, 91.697693%)" offset="0.359375"/><stop stop-opacity="1" stop-color="rgb(56.573486%, 42.481995%, 91.607666%)" offset="0.363281"/><stop stop-opacity="1" stop-color="rgb(56.840515%, 42.466736%, 91.517639%)" offset="0.367187"/><stop stop-opacity="1" stop-color="rgb(57.106018%, 42.451477%, 91.427612%)" offset="0.371094"/><stop stop-opacity="1" stop-color="rgb(57.373047%, 42.436218%, 91.337585%)" offset="0.375"/><stop stop-opacity="1" stop-color="rgb(57.63855%, 42.420959%, 91.246033%)" offset="0.378906"/><stop stop-opacity="1" stop-color="rgb(57.905579%, 42.405701%, 91.156006%)" offset="0.382812"/><stop stop-opacity="1" stop-color="rgb(58.171082%, 42.390442%, 91.065979%)" offset="0.386719"/><stop stop-opacity="1" stop-color="rgb(58.43811%, 42.375183%, 90.975952%)" offset="0.390625"/><stop stop-opacity="1" stop-color="rgb(58.703613%, 42.359924%, 90.885925%)" offset="0.394531"/><stop stop-opacity="1" stop-color="rgb(58.970642%, 42.344666%, 90.795898%)" offset="0.398437"/><stop stop-opacity="1" stop-color="rgb(59.237671%, 42.329407%, 90.705872%)" offset="0.402344"/><stop stop-opacity="1" stop-color="rgb(59.5047%, 42.315674%, 90.615845%)" offset="0.40625"/><stop stop-opacity="1" stop-color="rgb(59.770203%, 42.300415%, 90.524292%)" offset="0.410156"/><stop stop-opacity="1" stop-color="rgb(60.037231%, 42.285156%, 90.434265%)" offset="0.414062"/><stop stop-opacity="1" stop-color="rgb(60.302734%, 42.269897%, 90.344238%)" offset="0.417969"/><stop stop-opacity="1" stop-color="rgb(60.569763%, 42.254639%, 90.254211%)" offset="0.421875"/><stop stop-opacity="1" stop-color="rgb(60.835266%, 42.23938%, 90.164185%)" offset="0.425781"/><stop stop-opacity="1" stop-color="rgb(61.102295%, 42.224121%, 90.074158%)" offset="0.429688"/><stop stop-opacity="1" stop-color="rgb(61.367798%, 42.208862%, 89.984131%)" offset="0.433594"/><stop stop-opacity="1" stop-color="rgb(61.634827%, 42.193604%, 89.894104%)" offset="0.4375"/><stop stop-opacity="1" stop-color="rgb(61.90033%, 42.178345%, 89.802551%)" offset="0.441406"/><stop stop-opacity="1" stop-color="rgb(62.167358%, 42.163086%, 89.712524%)" offset="0.445312"/><stop stop-opacity="1" stop-color="rgb(62.434387%, 42.147827%, 89.622498%)" offset="0.449219"/><stop stop-opacity="1" stop-color="rgb(62.701416%, 42.132568%, 89.532471%)" offset="0.453125"/><stop stop-opacity="1" stop-color="rgb(62.966919%, 42.11731%, 89.442444%)" offset="0.457031"/><stop stop-opacity="1" stop-color="rgb(63.233948%, 42.102051%, 89.352417%)" offset="0.460937"/><stop stop-opacity="1" stop-color="rgb(63.499451%, 42.086792%, 89.26239%)" offset="0.464844"/><stop stop-opacity="1" stop-color="rgb(63.766479%, 42.071533%, 89.172363%)" offset="0.46875"/><stop stop-opacity="1" stop-color="rgb(64.031982%, 42.056274%, 89.080811%)" offset="0.472656"/><stop stop-opacity="1" stop-color="rgb(64.299011%, 42.041016%, 88.990784%)" offset="0.476562"/><stop stop-opacity="1" stop-color="rgb(64.564514%, 42.025757%, 88.900757%)" offset="0.480469"/><stop stop-opacity="1" stop-color="rgb(64.831543%, 42.010498%, 88.81073%)" offset="0.484375"/><stop stop-opacity="1" stop-color="rgb(65.097046%, 41.995239%, 88.720703%)" offset="0.488281"/><stop stop-opacity="1" stop-color="rgb(65.364075%, 41.97998%, 88.630676%)" offset="0.492187"/><stop stop-opacity="1" stop-color="rgb(65.631104%, 41.964722%, 88.539124%)" offset="0.496094"/><stop stop-opacity="1" stop-color="rgb(65.898132%, 41.949463%, 88.449097%)" offset="0.5"/><stop stop-opacity="1" stop-color="rgb(66.163635%, 41.934204%, 88.35907%)" offset="0.503906"/><stop stop-opacity="1" stop-color="rgb(66.430664%, 41.918945%, 88.269043%)" offset="0.507812"/><stop stop-opacity="1" stop-color="rgb(66.696167%, 41.903687%, 88.179016%)" offset="0.511719"/><stop stop-opacity="1" stop-color="rgb(66.963196%, 41.888428%, 88.088989%)" offset="0.515625"/><stop stop-opacity="1" stop-color="rgb(67.228699%, 41.873169%, 87.998962%)" offset="0.519531"/><stop stop-opacity="1" stop-color="rgb(67.495728%, 41.85791%, 87.908936%)" offset="0.523438"/><stop stop-opacity="1" stop-color="rgb(67.76123%, 41.842651%, 87.817383%)" offset="0.527344"/><stop stop-opacity="1" stop-color="rgb(68.028259%, 41.827393%, 87.727356%)" offset="0.53125"/><stop stop-opacity="1" stop-color="rgb(68.293762%, 41.812134%, 87.637329%)" offset="0.535156"/><stop stop-opacity="1" stop-color="rgb(68.560791%, 41.796875%, 87.547302%)" offset="0.539062"/><stop stop-opacity="1" stop-color="rgb(68.82782%, 41.781616%, 87.457275%)" offset="0.542969"/><stop stop-opacity="1" stop-color="rgb(69.094849%, 41.766357%, 87.367249%)" offset="0.546875"/><stop stop-opacity="1" stop-color="rgb(69.360352%, 41.751099%, 87.277222%)" offset="0.550781"/><stop stop-opacity="1" stop-color="rgb(69.62738%, 41.73584%, 87.187195%)" offset="0.554688"/><stop stop-opacity="1" stop-color="rgb(69.892883%, 41.720581%, 87.095642%)" offset="0.558594"/><stop stop-opacity="1" stop-color="rgb(70.159912%, 41.705322%, 87.005615%)" offset="0.5625"/><stop stop-opacity="1" stop-color="rgb(70.425415%, 41.690063%, 86.915588%)" offset="0.566406"/><stop stop-opacity="1" stop-color="rgb(70.692444%, 41.674805%, 86.825562%)" offset="0.570313"/><stop stop-opacity="1" stop-color="rgb(70.957947%, 41.659546%, 86.735535%)" offset="0.574219"/><stop stop-opacity="1" stop-color="rgb(71.224976%, 41.644287%, 86.645508%)" offset="0.578125"/><stop stop-opacity="1" stop-color="rgb(71.490479%, 41.629028%, 86.555481%)" offset="0.582031"/><stop stop-opacity="1" stop-color="rgb(71.757507%, 41.61377%, 86.465454%)" offset="0.585938"/><stop stop-opacity="1" stop-color="rgb(72.024536%, 41.598511%, 86.373901%)" offset="0.589844"/><stop stop-opacity="1" stop-color="rgb(72.291565%, 41.583252%, 86.283875%)" offset="0.59375"/><stop stop-opacity="1" stop-color="rgb(72.557068%, 41.567993%, 86.193848%)" offset="0.597656"/><stop stop-opacity="1" stop-color="rgb(72.824097%, 41.552734%, 86.103821%)" offset="0.601562"/><stop stop-opacity="1" stop-color="rgb(73.0896%, 41.537476%, 86.013794%)" offset="0.605469"/><stop stop-opacity="1" stop-color="rgb(73.356628%, 41.522217%, 85.923767%)" offset="0.609375"/><stop stop-opacity="1" stop-color="rgb(73.622131%, 41.506958%, 85.832214%)" offset="0.613281"/><stop stop-opacity="1" stop-color="rgb(73.88916%, 41.491699%, 85.742188%)" offset="0.617188"/><stop stop-opacity="1" stop-color="rgb(74.154663%, 41.47644%, 85.652161%)" offset="0.621094"/><stop stop-opacity="1" stop-color="rgb(74.421692%, 41.461182%, 85.562134%)" offset="0.625"/><stop stop-opacity="1" stop-color="rgb(74.687195%, 41.445923%, 85.472107%)" offset="0.628906"/><stop stop-opacity="1" stop-color="rgb(74.954224%, 41.430664%, 85.38208%)" offset="0.632812"/><stop stop-opacity="1" stop-color="rgb(75.221252%, 41.415405%, 85.292053%)" offset="0.636719"/><stop stop-opacity="1" stop-color="rgb(75.488281%, 41.401672%, 85.202026%)" offset="0.640625"/><stop stop-opacity="1" stop-color="rgb(75.753784%, 41.386414%, 85.110474%)" offset="0.644531"/><stop stop-opacity="1" stop-color="rgb(76.020813%, 41.371155%, 85.020447%)" offset="0.648438"/><stop stop-opacity="1" stop-color="rgb(76.286316%, 41.355896%, 84.93042%)" offset="0.652344"/><stop stop-opacity="1" stop-color="rgb(76.553345%, 41.340637%, 84.840393%)" offset="0.65625"/><stop stop-opacity="1" stop-color="rgb(76.818848%, 41.325378%, 84.750366%)" offset="0.660156"/><stop stop-opacity="1" stop-color="rgb(77.085876%, 41.31012%, 84.660339%)" offset="0.664062"/><stop stop-opacity="1" stop-color="rgb(77.351379%, 41.294861%, 84.570312%)" offset="0.667969"/><stop stop-opacity="1" stop-color="rgb(77.618408%, 41.279602%, 84.480286%)" offset="0.671875"/><stop stop-opacity="1" stop-color="rgb(77.883911%, 41.264343%, 84.388733%)" offset="0.675781"/><stop stop-opacity="1" stop-color="rgb(78.15094%, 41.249084%, 84.298706%)" offset="0.679687"/><stop stop-opacity="1" stop-color="rgb(78.417969%, 41.233826%, 84.208679%)" offset="0.683594"/><stop stop-opacity="1" stop-color="rgb(78.684998%, 41.218567%, 84.118652%)" offset="0.6875"/><stop stop-opacity="1" stop-color="rgb(78.9505%, 41.203308%, 84.028625%)" offset="0.691406"/><stop stop-opacity="1" stop-color="rgb(79.217529%, 41.188049%, 83.938599%)" offset="0.695312"/><stop stop-opacity="1" stop-color="rgb(79.483032%, 41.172791%, 83.848572%)" offset="0.699219"/><stop stop-opacity="1" stop-color="rgb(79.750061%, 41.157532%, 83.758545%)" offset="0.703125"/><stop stop-opacity="1" stop-color="rgb(80.015564%, 41.142273%, 83.666992%)" offset="0.707031"/><stop stop-opacity="1" stop-color="rgb(80.282593%, 41.127014%, 83.576965%)" offset="0.710938"/><stop stop-opacity="1" stop-color="rgb(80.548096%, 41.111755%, 83.486938%)" offset="0.714844"/><stop stop-opacity="1" stop-color="rgb(80.815125%, 41.096497%, 83.396912%)" offset="0.71875"/><stop stop-opacity="1" stop-color="rgb(81.080627%, 41.081238%, 83.306885%)" offset="0.722656"/><stop stop-opacity="1" stop-color="rgb(81.347656%, 41.065979%, 83.216858%)" offset="0.726562"/><stop stop-opacity="1" stop-color="rgb(81.614685%, 41.05072%, 83.125305%)" offset="0.730469"/><stop stop-opacity="1" stop-color="rgb(81.881714%, 41.035461%, 83.035278%)" offset="0.734375"/><stop stop-opacity="1" stop-color="rgb(82.147217%, 41.020203%, 82.945251%)" offset="0.738281"/><stop stop-opacity="1" stop-color="rgb(82.414246%, 41.004944%, 82.855225%)" offset="0.742188"/><stop stop-opacity="1" stop-color="rgb(82.679749%, 40.989685%, 82.765198%)" offset="0.746094"/><stop stop-opacity="1" stop-color="rgb(82.946777%, 40.974426%, 82.675171%)" offset="0.75"/><stop stop-opacity="1" stop-color="rgb(83.21228%, 40.959167%, 82.585144%)" offset="0.753906"/><stop stop-opacity="1" stop-color="rgb(83.479309%, 40.943909%, 82.495117%)" offset="0.757812"/><stop stop-opacity="1" stop-color="rgb(83.744812%, 40.92865%, 82.403564%)" offset="0.761719"/><stop stop-opacity="1" stop-color="rgb(84.011841%, 40.913391%, 82.313538%)" offset="0.765625"/><stop stop-opacity="1" stop-color="rgb(84.277344%, 40.898132%, 82.223511%)" offset="0.769531"/><stop stop-opacity="1" stop-color="rgb(84.544373%, 40.882874%, 82.133484%)" offset="0.773438"/><stop stop-opacity="1" stop-color="rgb(84.811401%, 40.867615%, 82.043457%)" offset="0.777344"/><stop stop-opacity="1" stop-color="rgb(85.07843%, 40.852356%, 81.95343%)" offset="0.78125"/><stop stop-opacity="1" stop-color="rgb(85.343933%, 40.837097%, 81.863403%)" offset="0.785156"/><stop stop-opacity="1" stop-color="rgb(85.610962%, 40.821838%, 81.773376%)" offset="0.789062"/><stop stop-opacity="1" stop-color="rgb(85.876465%, 40.80658%, 81.681824%)" offset="0.792969"/><stop stop-opacity="1" stop-color="rgb(86.143494%, 40.791321%, 81.591797%)" offset="0.796875"/><stop stop-opacity="1" stop-color="rgb(86.408997%, 40.776062%, 81.50177%)" offset="0.800781"/><stop stop-opacity="1" stop-color="rgb(86.676025%, 40.760803%, 81.411743%)" offset="0.804688"/><stop stop-opacity="1" stop-color="rgb(86.941528%, 40.745544%, 81.321716%)" offset="0.808594"/><stop stop-opacity="1" stop-color="rgb(87.208557%, 40.730286%, 81.231689%)" offset="0.8125"/><stop stop-opacity="1" stop-color="rgb(87.47406%, 40.715027%, 81.141663%)" offset="0.816406"/><stop stop-opacity="1" stop-color="rgb(87.741089%, 40.699768%, 81.051636%)" offset="0.820313"/><stop stop-opacity="1" stop-color="rgb(88.008118%, 40.684509%, 80.960083%)" offset="0.824219"/><stop stop-opacity="1" stop-color="rgb(88.275146%, 40.66925%, 80.870056%)" offset="0.828125"/><stop stop-opacity="1" stop-color="rgb(88.540649%, 40.653992%, 80.780029%)" offset="0.832031"/><stop stop-opacity="1" stop-color="rgb(88.807678%, 40.638733%, 80.690002%)" offset="0.835938"/><stop stop-opacity="1" stop-color="rgb(89.073181%, 40.623474%, 80.599976%)" offset="0.839844"/><stop stop-opacity="1" stop-color="rgb(89.34021%, 40.608215%, 80.509949%)" offset="0.84375"/><stop stop-opacity="1" stop-color="rgb(89.605713%, 40.592957%, 80.419922%)" offset="0.847656"/><stop stop-opacity="1" stop-color="rgb(89.872742%, 40.577698%, 80.329895%)" offset="0.851562"/><stop stop-opacity="1" stop-color="rgb(90.138245%, 40.562439%, 80.238342%)" offset="0.855469"/><stop stop-opacity="1" stop-color="rgb(90.405273%, 40.54718%, 80.148315%)" offset="0.859375"/><stop stop-opacity="1" stop-color="rgb(90.670776%, 40.531921%, 80.058289%)" offset="0.863281"/><stop stop-opacity="1" stop-color="rgb(90.937805%, 40.516663%, 79.968262%)" offset="0.867188"/><stop stop-opacity="1" stop-color="rgb(91.204834%, 40.501404%, 79.878235%)" offset="0.871094"/><stop stop-opacity="1" stop-color="rgb(91.471863%, 40.487671%, 79.788208%)" offset="0.875"/><stop stop-opacity="1" stop-color="rgb(91.737366%, 40.472412%, 79.696655%)" offset="0.878906"/><stop stop-opacity="1" stop-color="rgb(92.004395%, 40.457153%, 79.606628%)" offset="0.882812"/><stop stop-opacity="1" stop-color="rgb(92.269897%, 40.441895%, 79.516602%)" offset="0.886719"/><stop stop-opacity="1" stop-color="rgb(92.536926%, 40.426636%, 79.426575%)" offset="0.890625"/><stop stop-opacity="1" stop-color="rgb(92.802429%, 40.411377%, 79.336548%)" offset="0.894531"/><stop stop-opacity="1" stop-color="rgb(93.069458%, 40.396118%, 79.246521%)" offset="0.898438"/><stop stop-opacity="1" stop-color="rgb(93.334961%, 40.380859%, 79.156494%)" offset="0.902344"/><stop stop-opacity="1" stop-color="rgb(93.60199%, 40.365601%, 79.066467%)" offset="0.90625"/><stop stop-opacity="1" stop-color="rgb(93.867493%, 40.350342%, 78.974915%)" offset="0.910156"/><stop stop-opacity="1" stop-color="rgb(94.134521%, 40.335083%, 78.884888%)" offset="0.914062"/><stop stop-opacity="1" stop-color="rgb(94.40155%, 40.319824%, 78.794861%)" offset="0.917969"/><stop stop-opacity="1" stop-color="rgb(94.668579%, 40.304565%, 78.704834%)" offset="0.921875"/><stop stop-opacity="1" stop-color="rgb(94.934082%, 40.289307%, 78.614807%)" offset="0.925781"/><stop stop-opacity="1" stop-color="rgb(95.201111%, 40.274048%, 78.52478%)" offset="0.929687"/><stop stop-opacity="1" stop-color="rgb(95.466614%, 40.258789%, 78.434753%)" offset="0.933594"/><stop stop-opacity="1" stop-color="rgb(95.733643%, 40.24353%, 78.344727%)" offset="0.9375"/><stop stop-opacity="1" stop-color="rgb(95.999146%, 40.228271%, 78.253174%)" offset="0.941406"/><stop stop-opacity="1" stop-color="rgb(96.266174%, 40.213013%, 78.163147%)" offset="0.945312"/><stop stop-opacity="1" stop-color="rgb(96.531677%, 40.197754%, 78.07312%)" offset="0.949219"/><stop stop-opacity="1" stop-color="rgb(96.798706%, 40.182495%, 77.983093%)" offset="0.953125"/><stop stop-opacity="1" stop-color="rgb(97.064209%, 40.167236%, 77.893066%)" offset="0.957031"/><stop stop-opacity="1" stop-color="rgb(97.331238%, 40.151978%, 77.80304%)" offset="0.960938"/><stop stop-opacity="1" stop-color="rgb(97.598267%, 40.136719%, 77.713013%)" offset="0.964844"/><stop stop-opacity="1" stop-color="rgb(97.865295%, 40.12146%, 77.622986%)" offset="0.96875"/><stop stop-opacity="1" stop-color="rgb(98.130798%, 40.106201%, 77.531433%)" offset="0.972656"/><stop stop-opacity="1" stop-color="rgb(98.397827%, 40.090942%, 77.441406%)" offset="0.976562"/><stop stop-opacity="1" stop-color="rgb(98.66333%, 40.075684%, 77.351379%)" offset="0.980469"/><stop stop-opacity="1" stop-color="rgb(98.930359%, 40.060425%, 77.261353%)" offset="0.984375"/><stop stop-opacity="1" stop-color="rgb(99.195862%, 40.045166%, 77.171326%)" offset="0.988281"/><stop stop-opacity="1" stop-color="rgb(99.462891%, 40.029907%, 77.081299%)" offset="0.992188"/><stop stop-opacity="1" stop-color="rgb(99.728394%, 40.014648%, 76.989746%)" offset="0.996094"/><stop stop-opacity="1" stop-color="rgb(99.995422%, 39.99939%, 76.899719%)" offset="1"/></linearGradient></defs><g fill="#291425" fill-opacity="1"><g transform="translate(21.863121, 85.691535)"><g><path d="M 5.09375 -49.265625 L 34.359375 -49.265625 L 34.359375 -42.71875 L 13.75 -42.71875 L 13.75 -28.96875 L 30.71875 -28.96875 L 29.625 -22.34375 L 13.75 -22.34375 L 13.75 -6.546875 L 35.4375 -6.546875 L 35.4375 0 L 5.09375 0 Z M 5.09375 -49.265625 "/></g></g></g><g fill="#291425" fill-opacity="1"><g transform="translate(59.200667, 85.691535)"><g><path d="M 12.453125 0.296875 C 9.679688 0.296875 7.640625 -0.46875 6.328125 -2 C 5.015625 -3.53125 4.359375 -5.484375 4.359375 -7.859375 L 4.359375 -51.3125 L 12.65625 -52.84375 L 12.65625 -8.65625 C 12.65625 -7.539062 12.875 -6.765625 13.3125 -6.328125 C 13.75 -5.890625 14.382812 -5.671875 15.21875 -5.671875 C 15.695312 -5.671875 16.164062 -5.695312 16.625 -5.75 C 17.09375 -5.800781 17.519531 -5.875 17.90625 -5.96875 C 18.34375 -6.0625 18.726562 -6.160156 19.0625 -6.265625 L 20.09375 -1.015625 C 19.457031 -0.773438 18.753906 -0.554688 17.984375 -0.359375 C 17.296875 -0.171875 16.488281 -0.015625 15.5625 0.109375 C 14.644531 0.234375 13.609375 0.296875 12.453125 0.296875 Z M 12.453125 0.296875 "/></g></g></g><g fill="#291425" fill-opacity="1"><g transform="translate(80.380443, 85.691535)"><g><path d="M 2.546875 -17.25 C 2.546875 -20.5 2.992188 -23.359375 3.890625 -25.828125 C 4.785156 -28.304688 6.019531 -30.382812 7.59375 -32.0625 C 9.175781 -33.738281 11.035156 -35 13.171875 -35.84375 C 15.304688 -36.695312 17.613281 -37.125 20.09375 -37.125 C 22.269531 -37.125 24.125 -36.851562 25.65625 -36.3125 C 27.1875 -35.78125 28.4375 -35.050781 29.40625 -34.125 C 30.375 -33.207031 31.085938 -32.117188 31.546875 -30.859375 C 32.003906 -29.597656 32.234375 -28.238281 32.234375 -26.78125 C 32.234375 -25.03125 31.75 -23.367188 30.78125 -21.796875 C 29.8125 -20.222656 28.414062 -18.835938 26.59375 -17.640625 C 24.78125 -16.453125 22.585938 -15.503906 20.015625 -14.796875 C 17.441406 -14.097656 14.554688 -13.726562 11.359375 -13.6875 C 11.503906 -12.570312 11.734375 -11.515625 12.046875 -10.515625 C 12.359375 -9.523438 12.816406 -8.648438 13.421875 -7.890625 C 14.035156 -7.140625 14.828125 -6.546875 15.796875 -6.109375 C 16.765625 -5.671875 17.976562 -5.453125 19.4375 -5.453125 C 20.5 -5.453125 21.632812 -5.570312 22.84375 -5.8125 C 24.0625 -6.0625 25.179688 -6.359375 26.203125 -6.703125 C 27.410156 -7.085938 28.597656 -7.519531 29.765625 -8 L 31.953125 -2.84375 C 30.691406 -2.207031 29.332031 -1.648438 27.875 -1.171875 C 26.613281 -0.734375 25.15625 -0.34375 23.5 0 C 21.851562 0.34375 20.109375 0.515625 18.265625 0.515625 C 15.453125 0.515625 13.050781 0.09375 11.0625 -0.75 C 9.070312 -1.601562 7.445312 -2.804688 6.1875 -4.359375 C 4.925781 -5.921875 4.003906 -7.789062 3.421875 -9.96875 C 2.835938 -12.15625 2.546875 -14.582031 2.546875 -17.25 Z M 19.4375 -31.4375 C 17.832031 -31.4375 16.507812 -31.0625 15.46875 -30.3125 C 14.425781 -29.5625 13.585938 -28.59375 12.953125 -27.40625 C 12.328125 -26.21875 11.878906 -24.878906 11.609375 -23.390625 C 11.335938 -21.910156 11.179688 -20.421875 11.140625 -18.921875 C 13.460938 -19.015625 15.4375 -19.316406 17.0625 -19.828125 C 18.6875 -20.335938 20.007812 -20.96875 21.03125 -21.71875 C 22.050781 -22.476562 22.789062 -23.289062 23.25 -24.15625 C 23.707031 -25.03125 23.9375 -25.90625 23.9375 -26.78125 C 23.9375 -28.1875 23.523438 -29.3125 22.703125 -30.15625 C 21.878906 -31.007812 20.789062 -31.4375 19.4375 -31.4375 Z M 19.4375 -31.4375 "/></g></g></g><g fill="#291425" fill-opacity="1"><g transform="translate(114.806677, 85.691535)"><g><path d="M 24.375 -27.734375 C 23.65625 -28.554688 22.914062 -29.257812 22.15625 -29.84375 C 21.40625 -30.425781 20.398438 -30.71875 19.140625 -30.71875 C 18.410156 -30.71875 17.597656 -30.609375 16.703125 -30.390625 C 15.804688 -30.171875 14.96875 -29.632812 14.1875 -28.78125 C 13.414062 -27.9375 12.773438 -26.6875 12.265625 -25.03125 C 11.753906 -23.382812 11.5 -21.15625 11.5 -18.34375 C 11.5 -15.476562 11.753906 -13.207031 12.265625 -11.53125 C 12.773438 -9.863281 13.425781 -8.566406 14.21875 -7.640625 C 15.019531 -6.722656 15.882812 -6.128906 16.8125 -5.859375 C 17.738281 -5.585938 18.632812 -5.453125 19.5 -5.453125 C 20.1875 -5.453125 20.890625 -5.515625 21.609375 -5.640625 C 22.335938 -5.765625 23.039062 -5.910156 23.71875 -6.078125 C 24.40625 -6.242188 25.003906 -6.398438 25.515625 -6.546875 C 26.023438 -6.691406 26.398438 -6.816406 26.640625 -6.921875 L 28.671875 -1.671875 C 28.523438 -1.617188 28.195312 -1.472656 27.6875 -1.234375 C 27.175781 -0.992188 26.484375 -0.75 25.609375 -0.5 C 24.742188 -0.257812 23.703125 -0.03125 22.484375 0.1875 C 21.273438 0.40625 19.914062 0.515625 18.40625 0.515625 C 15.59375 0.515625 13.191406 0.09375 11.203125 -0.75 C 9.210938 -1.601562 7.570312 -2.804688 6.28125 -4.359375 C 5 -5.921875 4.054688 -7.789062 3.453125 -9.96875 C 2.847656 -12.15625 2.546875 -14.582031 2.546875 -17.25 C 2.546875 -20.445312 2.96875 -23.28125 3.8125 -25.75 C 4.664062 -28.226562 5.84375 -30.304688 7.34375 -31.984375 C 8.851562 -33.660156 10.625 -34.9375 12.65625 -35.8125 C 14.695312 -36.6875 16.882812 -37.125 19.21875 -37.125 C 21.5 -37.125 23.425781 -36.6875 25 -35.8125 C 26.570312 -34.9375 27.921875 -33.722656 29.046875 -32.171875 Z M 24.375 -27.734375 "/></g></g></g><g fill="#291425" fill-opacity="1"><g transform="translate(144.647607, 85.691535)"><g><path d="M 19.140625 -37.125 C 24.722656 -37.125 28.773438 -35.472656 31.296875 -32.171875 C 33.816406 -28.867188 35.078125 -24.332031 35.078125 -18.5625 C 35.078125 -15.84375 34.738281 -13.304688 34.0625 -10.953125 C 33.382812 -8.597656 32.351562 -6.554688 30.96875 -4.828125 C 29.582031 -3.109375 27.847656 -1.75 25.765625 -0.75 C 23.679688 0.238281 21.253906 0.734375 18.484375 0.734375 C 15.722656 0.734375 13.332031 0.3125 11.3125 -0.53125 C 9.300781 -1.382812 7.640625 -2.613281 6.328125 -4.21875 C 5.015625 -5.820312 4.054688 -7.765625 3.453125 -10.046875 C 2.847656 -12.328125 2.546875 -14.898438 2.546875 -17.765625 C 2.546875 -20.523438 2.882812 -23.082031 3.5625 -25.4375 C 4.238281 -27.789062 5.269531 -29.828125 6.65625 -31.546875 C 8.039062 -33.273438 9.773438 -34.632812 11.859375 -35.625 C 13.953125 -36.625 16.378906 -37.125 19.140625 -37.125 Z M 18.40625 -31 C 17 -31 15.847656 -30.679688 14.953125 -30.046875 C 14.054688 -29.421875 13.351562 -28.535156 12.84375 -27.390625 C 12.332031 -26.253906 11.976562 -24.921875 11.78125 -23.390625 C 11.59375 -21.867188 11.5 -20.234375 11.5 -18.484375 C 11.5 -16.691406 11.609375 -14.992188 11.828125 -13.390625 C 12.046875 -11.785156 12.445312 -10.390625 13.03125 -9.203125 C 13.613281 -8.015625 14.398438 -7.082031 15.390625 -6.40625 C 16.390625 -5.726562 17.664062 -5.390625 19.21875 -5.390625 C 20.625 -5.390625 21.773438 -5.703125 22.671875 -6.328125 C 23.566406 -6.960938 24.269531 -7.847656 24.78125 -8.984375 C 25.289062 -10.128906 25.640625 -11.453125 25.828125 -12.953125 C 26.023438 -14.460938 26.125 -16.085938 26.125 -17.828125 C 26.125 -19.628906 26.015625 -21.328125 25.796875 -22.921875 C 25.578125 -24.523438 25.175781 -25.929688 24.59375 -27.140625 C 24.019531 -28.359375 23.234375 -29.304688 22.234375 -29.984375 C 21.242188 -30.660156 19.96875 -31 18.40625 -31 Z M 18.40625 -31 "/></g></g></g><g fill="#291425" fill-opacity="1"><g transform="translate(182.276281, 85.691535)"><g><path d="M 15.421875 -37.125 C 16.835938 -37.125 18.222656 -36.976562 19.578125 -36.6875 C 20.929688 -36.394531 22.144531 -36.050781 23.21875 -35.65625 C 24.476562 -35.226562 25.640625 -34.769531 26.703125 -34.28125 L 24.234375 -28.609375 C 23.265625 -29.046875 22.296875 -29.429688 21.328125 -29.765625 C 20.503906 -30.054688 19.59375 -30.332031 18.59375 -30.59375 C 17.601562 -30.863281 16.617188 -31 15.640625 -31 C 14.523438 -31 13.566406 -30.734375 12.765625 -30.203125 C 11.972656 -29.671875 11.578125 -28.867188 11.578125 -27.796875 C 11.578125 -25.035156 13.585938 -22.878906 17.609375 -21.328125 C 19.117188 -20.742188 20.476562 -20.125 21.6875 -19.46875 C 22.90625 -18.8125 23.9375 -18.046875 24.78125 -17.171875 C 25.632812 -16.296875 26.273438 -15.289062 26.703125 -14.15625 C 27.140625 -13.019531 27.359375 -11.671875 27.359375 -10.109375 C 27.359375 -8.753906 27.078125 -7.421875 26.515625 -6.109375 C 25.960938 -4.804688 25.140625 -3.644531 24.046875 -2.625 C 22.960938 -1.601562 21.628906 -0.785156 20.046875 -0.171875 C 18.472656 0.429688 16.691406 0.734375 14.703125 0.734375 C 13.097656 0.734375 11.519531 0.550781 9.96875 0.1875 C 8.414062 -0.175781 7.019531 -0.578125 5.78125 -1.015625 C 4.550781 -1.453125 3.570312 -1.863281 2.84375 -2.25 L 1.75 -2.765625 L 4.4375 -8.875 L 5.390625 -8.375 C 6.015625 -7.976562 6.8125 -7.5625 7.78125 -7.125 C 8.757812 -6.695312 9.804688 -6.300781 10.921875 -5.9375 C 12.035156 -5.570312 13.050781 -5.390625 13.96875 -5.390625 C 15.664062 -5.390625 16.925781 -5.726562 17.75 -6.40625 C 18.582031 -7.082031 19 -7.976562 19 -9.09375 C 19 -10.351562 18.546875 -11.503906 17.640625 -12.546875 C 16.742188 -13.597656 15.398438 -14.460938 13.609375 -15.140625 C 9.867188 -16.546875 7.1875 -18.144531 5.5625 -19.9375 C 3.9375 -21.738281 3.125 -24.066406 3.125 -26.921875 C 3.125 -28.285156 3.4375 -29.582031 4.0625 -30.8125 C 4.695312 -32.050781 5.5625 -33.144531 6.65625 -34.09375 C 7.75 -35.039062 9.046875 -35.78125 10.546875 -36.3125 C 12.054688 -36.851562 13.679688 -37.125 15.421875 -37.125 Z M 15.421875 -37.125 "/></g></g></g><g fill="#291425" fill-opacity="1"><g transform="translate(212.26277, 85.691535)"><g><path d="M 34.359375 -14.703125 C 34.359375 -13.242188 34.46875 -11.90625 34.6875 -10.6875 C 34.90625 -9.476562 35.144531 -8.28125 35.40625 -7.09375 C 35.675781 -5.90625 35.929688 -4.703125 36.171875 -3.484375 C 36.410156 -2.273438 36.53125 -0.941406 36.53125 0.515625 C 36.53125 5.648438 35.21875 9.476562 32.59375 12 C 29.976562 14.53125 26.441406 15.796875 21.984375 15.796875 C 20.523438 15.796875 19.066406 15.660156 17.609375 15.390625 C 16.148438 15.128906 14.800781 14.828125 13.5625 14.484375 C 12.332031 14.140625 11.28125 13.796875 10.40625 13.453125 C 9.53125 13.117188 8.945312 12.878906 8.65625 12.734375 L 10.703125 6.40625 C 11.378906 6.695312 12.140625 7 12.984375 7.3125 C 13.835938 7.625 14.710938 7.925781 15.609375 8.21875 C 16.503906 8.507812 17.4375 8.753906 18.40625 8.953125 C 19.382812 9.148438 20.332031 9.25 21.25 9.25 C 23.96875 9.25 25.929688 8.429688 27.140625 6.796875 C 28.359375 5.171875 28.96875 3.078125 28.96875 0.515625 C 28.96875 -1.816406 28.484375 -4.222656 27.515625 -6.703125 C 26.148438 -4.128906 24.335938 -2.296875 22.078125 -1.203125 C 19.828125 -0.109375 17.46875 0.4375 15 0.4375 C 11.164062 0.4375 8.429688 -0.675781 6.796875 -2.90625 C 5.171875 -5.144531 4.359375 -8.203125 4.359375 -12.078125 L 4.359375 -36.25 L 12.65625 -36.25 L 12.65625 -12.296875 C 12.65625 -10.265625 13.019531 -8.664062 13.75 -7.5 C 14.476562 -6.332031 15.71875 -5.75 17.46875 -5.75 C 18.382812 -5.75 19.363281 -6.015625 20.40625 -6.546875 C 21.457031 -7.078125 22.40625 -7.816406 23.25 -8.765625 C 24.101562 -9.710938 24.804688 -10.851562 25.359375 -12.1875 C 25.921875 -13.519531 26.203125 -14.960938 26.203125 -16.515625 L 26.203125 -36.25 L 34.71875 -36.25 Z M 34.359375 -14.703125 "/></g></g></g><g fill="#291425" fill-opacity="1"><g transform="translate(251.419902, 85.691535)"><g><path d="M 15.421875 -37.125 C 16.835938 -37.125 18.222656 -36.976562 19.578125 -36.6875 C 20.929688 -36.394531 22.144531 -36.050781 23.21875 -35.65625 C 24.476562 -35.226562 25.640625 -34.769531 26.703125 -34.28125 L 24.234375 -28.609375 C 23.265625 -29.046875 22.296875 -29.429688 21.328125 -29.765625 C 20.503906 -30.054688 19.59375 -30.332031 18.59375 -30.59375 C 17.601562 -30.863281 16.617188 -31 15.640625 -31 C 14.523438 -31 13.566406 -30.734375 12.765625 -30.203125 C 11.972656 -29.671875 11.578125 -28.867188 11.578125 -27.796875 C 11.578125 -25.035156 13.585938 -22.878906 17.609375 -21.328125 C 19.117188 -20.742188 20.476562 -20.125 21.6875 -19.46875 C 22.90625 -18.8125 23.9375 -18.046875 24.78125 -17.171875 C 25.632812 -16.296875 26.273438 -15.289062 26.703125 -14.15625 C 27.140625 -13.019531 27.359375 -11.671875 27.359375 -10.109375 C 27.359375 -8.753906 27.078125 -7.421875 26.515625 -6.109375 C 25.960938 -4.804688 25.140625 -3.644531 24.046875 -2.625 C 22.960938 -1.601562 21.628906 -0.785156 20.046875 -0.171875 C 18.472656 0.429688 16.691406 0.734375 14.703125 0.734375 C 13.097656 0.734375 11.519531 0.550781 9.96875 0.1875 C 8.414062 -0.175781 7.019531 -0.578125 5.78125 -1.015625 C 4.550781 -1.453125 3.570312 -1.863281 2.84375 -2.25 L 1.75 -2.765625 L 4.4375 -8.875 L 5.390625 -8.375 C 6.015625 -7.976562 6.8125 -7.5625 7.78125 -7.125 C 8.757812 -6.695312 9.804688 -6.300781 10.921875 -5.9375 C 12.035156 -5.570312 13.050781 -5.390625 13.96875 -5.390625 C 15.664062 -5.390625 16.925781 -5.726562 17.75 -6.40625 C 18.582031 -7.082031 19 -7.976562 19 -9.09375 C 19 -10.351562 18.546875 -11.503906 17.640625 -12.546875 C 16.742188 -13.597656 15.398438 -14.460938 13.609375 -15.140625 C 9.867188 -16.546875 7.1875 -18.144531 5.5625 -19.9375 C 3.9375 -21.738281 3.125 -24.066406 3.125 -26.921875 C 3.125 -28.285156 3.4375 -29.582031 4.0625 -30.8125 C 4.695312 -32.050781 5.5625 -33.144531 6.65625 -34.09375 C 7.75 -35.039062 9.046875 -35.78125 10.546875 -36.3125 C 12.054688 -36.851562 13.679688 -37.125 15.421875 -37.125 Z M 15.421875 -37.125 "/></g></g></g><g fill="#564162" fill-opacity="1"><g transform="translate(146.325382, 120.389195)"><g><path d="M 2.515625 -4.109375 C 2.867188 -4.109375 3.160156 -4.128906 3.390625 -4.171875 C 3.628906 -4.210938 3.816406 -4.273438 3.953125 -4.359375 C 4.097656 -4.453125 4.203125 -4.566406 4.265625 -4.703125 C 4.328125 -4.847656 4.359375 -5.019531 4.359375 -5.21875 L 4.703125 -5.21875 L 4.703125 -2.578125 L 4.359375 -2.578125 C 4.359375 -2.765625 4.328125 -2.929688 4.265625 -3.078125 C 4.210938 -3.222656 4.117188 -3.34375 3.984375 -3.4375 C 3.847656 -3.53125 3.660156 -3.597656 3.421875 -3.640625 C 3.179688 -3.691406 2.878906 -3.71875 2.515625 -3.71875 L 2.515625 -1.515625 C 2.515625 -1.304688 2.539062 -1.128906 2.59375 -0.984375 C 2.644531 -0.847656 2.734375 -0.738281 2.859375 -0.65625 C 2.992188 -0.570312 3.160156 -0.507812 3.359375 -0.46875 C 3.566406 -0.4375 3.828125 -0.421875 4.140625 -0.421875 C 4.472656 -0.421875 4.757812 -0.441406 5 -0.484375 C 5.238281 -0.535156 5.4375 -0.617188 5.59375 -0.734375 C 5.757812 -0.847656 5.890625 -1 5.984375 -1.1875 C 6.085938 -1.382812 6.171875 -1.625 6.234375 -1.90625 L 6.609375 -1.90625 L 6.46875 0 L 0.4375 0 L 0.4375 -0.375 C 0.664062 -0.375 0.847656 -0.390625 0.984375 -0.421875 C 1.117188 -0.453125 1.222656 -0.503906 1.296875 -0.578125 C 1.378906 -0.660156 1.429688 -0.773438 1.453125 -0.921875 C 1.484375 -1.066406 1.5 -1.25 1.5 -1.46875 L 1.5 -6 C 1.5 -6.226562 1.488281 -6.410156 1.46875 -6.546875 C 1.445312 -6.679688 1.398438 -6.789062 1.328125 -6.875 C 1.265625 -6.957031 1.164062 -7.007812 1.03125 -7.03125 C 0.90625 -7.0625 0.738281 -7.085938 0.53125 -7.109375 L 0.53125 -7.46875 L 6.140625 -7.46875 L 6.234375 -5.765625 L 5.890625 -5.765625 C 5.847656 -6.023438 5.78125 -6.234375 5.6875 -6.390625 C 5.601562 -6.554688 5.484375 -6.6875 5.328125 -6.78125 C 5.179688 -6.882812 4.992188 -6.953125 4.765625 -6.984375 C 4.535156 -7.023438 4.253906 -7.046875 3.921875 -7.046875 L 2.6875 -7.046875 C 2.570312 -7.046875 2.515625 -6.992188 2.515625 -6.890625 Z M 2.515625 -4.109375 "/></g></g></g><g fill="#564162" fill-opacity="1"><g transform="translate(154.822625, 120.389195)"><g><path d="M 2.03125 -1.515625 C 2.03125 -1.265625 2.039062 -1.066406 2.0625 -0.921875 C 2.082031 -0.773438 2.117188 -0.660156 2.171875 -0.578125 C 2.234375 -0.492188 2.320312 -0.429688 2.4375 -0.390625 C 2.550781 -0.359375 2.703125 -0.34375 2.890625 -0.34375 L 2.890625 0 L 0.21875 0 L 0.21875 -0.34375 C 0.40625 -0.34375 0.554688 -0.359375 0.671875 -0.390625 C 0.796875 -0.429688 0.890625 -0.488281 0.953125 -0.5625 C 1.023438 -0.644531 1.070312 -0.753906 1.09375 -0.890625 C 1.113281 -1.035156 1.125 -1.222656 1.125 -1.453125 L 1.125 -5.625 C 1.125 -5.976562 1.117188 -6.269531 1.109375 -6.5 C 1.097656 -6.738281 1.082031 -6.898438 1.0625 -6.984375 C 1.03125 -7.128906 0.953125 -7.226562 0.828125 -7.28125 C 0.710938 -7.332031 0.5 -7.359375 0.1875 -7.359375 L 0.1875 -7.6875 L 2.03125 -8.046875 Z M 2.03125 -1.515625 "/></g></g></g><g fill="#564162" fill-opacity="1"><g transform="translate(159.430616, 120.389195)"><g><path d="M 5.0625 -0.90625 C 4.507812 -0.238281 3.828125 0.09375 3.015625 0.09375 C 2.628906 0.09375 2.28125 0.03125 1.96875 -0.09375 C 1.664062 -0.21875 1.398438 -0.394531 1.171875 -0.625 C 0.953125 -0.851562 0.78125 -1.128906 0.65625 -1.453125 C 0.53125 -1.773438 0.46875 -2.128906 0.46875 -2.515625 C 0.46875 -2.910156 0.53125 -3.273438 0.65625 -3.609375 C 0.789062 -3.941406 0.976562 -4.226562 1.21875 -4.46875 C 1.457031 -4.707031 1.738281 -4.894531 2.0625 -5.03125 C 2.382812 -5.164062 2.742188 -5.234375 3.140625 -5.234375 C 3.765625 -5.234375 4.25 -5.0625 4.59375 -4.71875 C 4.9375 -4.382812 5.109375 -3.898438 5.109375 -3.265625 C 5.109375 -3.179688 5.085938 -3.128906 5.046875 -3.109375 C 5.015625 -3.085938 4.929688 -3.078125 4.796875 -3.078125 L 1.609375 -3.078125 C 1.597656 -3.023438 1.585938 -2.960938 1.578125 -2.890625 C 1.578125 -2.816406 1.578125 -2.734375 1.578125 -2.640625 C 1.578125 -2.304688 1.613281 -2 1.6875 -1.71875 C 1.769531 -1.445312 1.882812 -1.210938 2.03125 -1.015625 C 2.1875 -0.828125 2.367188 -0.675781 2.578125 -0.5625 C 2.796875 -0.457031 3.035156 -0.40625 3.296875 -0.40625 C 3.566406 -0.40625 3.816406 -0.460938 4.046875 -0.578125 C 4.273438 -0.703125 4.515625 -0.898438 4.765625 -1.171875 Z M 3.46875 -3.515625 C 3.59375 -3.515625 3.691406 -3.519531 3.765625 -3.53125 C 3.847656 -3.539062 3.90625 -3.550781 3.9375 -3.5625 C 3.976562 -3.582031 4.003906 -3.609375 4.015625 -3.640625 C 4.035156 -3.679688 4.046875 -3.734375 4.046875 -3.796875 C 4.046875 -4.085938 3.945312 -4.320312 3.75 -4.5 C 3.5625 -4.6875 3.304688 -4.78125 2.984375 -4.78125 C 2.285156 -4.78125 1.847656 -4.359375 1.671875 -3.515625 Z M 3.46875 -3.515625 "/></g></g></g><g fill="#564162" fill-opacity="1"><g transform="translate(166.443925, 120.389195)"><g><path d="M 3.390625 -2.875 C 3.015625 -2.726562 2.695312 -2.585938 2.4375 -2.453125 C 2.1875 -2.316406 1.984375 -2.179688 1.828125 -2.046875 C 1.671875 -1.910156 1.554688 -1.773438 1.484375 -1.640625 C 1.421875 -1.503906 1.390625 -1.363281 1.390625 -1.21875 C 1.390625 -1.007812 1.460938 -0.835938 1.609375 -0.703125 C 1.753906 -0.566406 1.941406 -0.5 2.171875 -0.5 C 2.335938 -0.5 2.492188 -0.539062 2.640625 -0.625 C 2.785156 -0.707031 2.910156 -0.820312 3.015625 -0.96875 C 3.128906 -1.113281 3.21875 -1.285156 3.28125 -1.484375 C 3.351562 -1.679688 3.390625 -1.890625 3.390625 -2.109375 Z M 3.390625 -3.296875 L 3.390625 -3.6875 C 3.390625 -4.476562 3.050781 -4.875 2.375 -4.875 C 2.269531 -4.875 2.175781 -4.863281 2.09375 -4.84375 C 2.019531 -4.820312 1.957031 -4.785156 1.90625 -4.734375 C 1.851562 -4.691406 1.804688 -4.628906 1.765625 -4.546875 C 1.722656 -4.460938 1.679688 -4.359375 1.640625 -4.234375 C 1.566406 -4.046875 1.492188 -3.921875 1.421875 -3.859375 C 1.359375 -3.804688 1.265625 -3.78125 1.140625 -3.78125 C 0.816406 -3.78125 0.65625 -3.941406 0.65625 -4.265625 C 0.65625 -4.566406 0.816406 -4.800781 1.140625 -4.96875 C 1.472656 -5.144531 1.941406 -5.234375 2.546875 -5.234375 C 3.191406 -5.234375 3.648438 -5.117188 3.921875 -4.890625 C 4.203125 -4.660156 4.34375 -4.269531 4.34375 -3.71875 L 4.34375 -1.546875 C 4.34375 -0.816406 4.488281 -0.453125 4.78125 -0.453125 C 4.863281 -0.453125 4.945312 -0.460938 5.03125 -0.484375 C 5.113281 -0.503906 5.1875 -0.5625 5.25 -0.65625 L 5.390625 -0.421875 C 5.304688 -0.273438 5.160156 -0.148438 4.953125 -0.046875 C 4.742188 0.046875 4.53125 0.09375 4.3125 0.09375 C 4.019531 0.09375 3.804688 0.00390625 3.671875 -0.171875 C 3.535156 -0.359375 3.46875 -0.613281 3.46875 -0.9375 L 3.421875 -0.9375 C 3.242188 -0.625 3.003906 -0.375 2.703125 -0.1875 C 2.410156 0 2.085938 0.09375 1.734375 0.09375 C 1.316406 0.09375 0.992188 -0.0078125 0.765625 -0.21875 C 0.535156 -0.425781 0.421875 -0.707031 0.421875 -1.0625 C 0.421875 -1.21875 0.445312 -1.363281 0.5 -1.5 C 0.550781 -1.644531 0.640625 -1.78125 0.765625 -1.90625 C 0.890625 -2.039062 1.050781 -2.171875 1.25 -2.296875 C 1.445312 -2.421875 1.691406 -2.546875 1.984375 -2.671875 Z M 3.390625 -3.296875 "/></g></g></g><g fill="#564162" fill-opacity="1"><g transform="translate(173.272955, 120.389195)"><g><path d="M 2.15625 -1.546875 C 2.15625 -1.273438 2.160156 -1.0625 2.171875 -0.90625 C 2.179688 -0.75 2.210938 -0.628906 2.265625 -0.546875 C 2.328125 -0.472656 2.410156 -0.421875 2.515625 -0.390625 C 2.617188 -0.367188 2.765625 -0.351562 2.953125 -0.34375 L 2.953125 0 L 0.375 0 L 0.375 -0.34375 C 0.5625 -0.34375 0.707031 -0.359375 0.8125 -0.390625 C 0.925781 -0.421875 1.007812 -0.472656 1.0625 -0.546875 C 1.125 -0.628906 1.160156 -0.742188 1.171875 -0.890625 C 1.191406 -1.035156 1.203125 -1.226562 1.203125 -1.46875 L 1.203125 -2.609375 C 1.203125 -3.046875 1.195312 -3.382812 1.1875 -3.625 C 1.175781 -3.875 1.144531 -4.054688 1.09375 -4.171875 C 1.039062 -4.296875 0.953125 -4.367188 0.828125 -4.390625 C 0.710938 -4.410156 0.550781 -4.421875 0.34375 -4.421875 L 0.34375 -4.765625 L 2.046875 -5.140625 L 2.1875 -3.9375 L 2.21875 -3.9375 C 2.300781 -4.125 2.40625 -4.296875 2.53125 -4.453125 C 2.664062 -4.617188 2.804688 -4.757812 2.953125 -4.875 C 3.097656 -4.988281 3.25 -5.078125 3.40625 -5.140625 C 3.570312 -5.203125 3.738281 -5.234375 3.90625 -5.234375 C 4.113281 -5.234375 4.273438 -5.179688 4.390625 -5.078125 C 4.515625 -4.984375 4.578125 -4.851562 4.578125 -4.6875 C 4.578125 -4.53125 4.523438 -4.40625 4.421875 -4.3125 C 4.328125 -4.226562 4.191406 -4.1875 4.015625 -4.1875 C 3.910156 -4.1875 3.820312 -4.195312 3.75 -4.21875 C 3.675781 -4.25 3.613281 -4.28125 3.5625 -4.3125 C 3.507812 -4.34375 3.457031 -4.367188 3.40625 -4.390625 C 3.363281 -4.421875 3.3125 -4.4375 3.25 -4.4375 C 3.070312 -4.4375 2.894531 -4.320312 2.71875 -4.09375 C 2.550781 -3.875 2.414062 -3.59375 2.3125 -3.25 C 2.257812 -3.0625 2.21875 -2.847656 2.1875 -2.609375 C 2.164062 -2.378906 2.15625 -2.132812 2.15625 -1.875 Z M 2.15625 -1.546875 "/></g></g></g><g fill="#564162" fill-opacity="1"><g transform="translate(179.355179, 120.389195)"><g><path d="M 2.09375 -1.515625 C 2.09375 -1.253906 2.097656 -1.046875 2.109375 -0.890625 C 2.128906 -0.742188 2.164062 -0.628906 2.21875 -0.546875 C 2.269531 -0.460938 2.347656 -0.40625 2.453125 -0.375 C 2.566406 -0.351562 2.71875 -0.335938 2.90625 -0.328125 L 2.90625 0 L 0.359375 0 L 0.359375 -0.328125 C 0.535156 -0.335938 0.675781 -0.351562 0.78125 -0.375 C 0.894531 -0.40625 0.976562 -0.457031 1.03125 -0.53125 C 1.09375 -0.613281 1.128906 -0.726562 1.140625 -0.875 C 1.160156 -1.019531 1.171875 -1.210938 1.171875 -1.453125 L 1.171875 -2.75 C 1.171875 -3.519531 1.148438 -3.988281 1.109375 -4.15625 C 1.097656 -4.238281 1.078125 -4.304688 1.046875 -4.359375 C 1.015625 -4.410156 0.96875 -4.453125 0.90625 -4.484375 C 0.851562 -4.515625 0.78125 -4.535156 0.6875 -4.546875 C 0.59375 -4.554688 0.476562 -4.5625 0.34375 -4.5625 L 0.34375 -4.875 L 1.890625 -5.234375 L 2.015625 -4.28125 L 2.046875 -4.28125 C 2.296875 -4.582031 2.582031 -4.816406 2.90625 -4.984375 C 3.238281 -5.148438 3.597656 -5.234375 3.984375 -5.234375 C 4.285156 -5.234375 4.554688 -5.1875 4.796875 -5.09375 C 5.046875 -5 5.234375 -4.867188 5.359375 -4.703125 C 5.472656 -4.546875 5.550781 -4.347656 5.59375 -4.109375 C 5.644531 -3.878906 5.671875 -3.554688 5.671875 -3.140625 L 5.671875 -1.515625 C 5.671875 -1.253906 5.675781 -1.046875 5.6875 -0.890625 C 5.707031 -0.742188 5.742188 -0.628906 5.796875 -0.546875 C 5.847656 -0.460938 5.925781 -0.40625 6.03125 -0.375 C 6.132812 -0.351562 6.273438 -0.335938 6.453125 -0.328125 L 6.453125 0 L 3.9375 0 L 3.9375 -0.328125 C 4.125 -0.335938 4.269531 -0.351562 4.375 -0.375 C 4.476562 -0.40625 4.554688 -0.457031 4.609375 -0.53125 C 4.671875 -0.613281 4.707031 -0.726562 4.71875 -0.875 C 4.738281 -1.019531 4.75 -1.210938 4.75 -1.453125 L 4.75 -2.734375 C 4.75 -3.109375 4.726562 -3.421875 4.6875 -3.671875 C 4.644531 -3.921875 4.578125 -4.125 4.484375 -4.28125 C 4.398438 -4.4375 4.285156 -4.546875 4.140625 -4.609375 C 4.003906 -4.679688 3.835938 -4.71875 3.640625 -4.71875 C 3.347656 -4.71875 3.078125 -4.640625 2.828125 -4.484375 C 2.585938 -4.335938 2.398438 -4.128906 2.265625 -3.859375 C 2.234375 -3.796875 2.207031 -3.734375 2.1875 -3.671875 C 2.164062 -3.617188 2.144531 -3.550781 2.125 -3.46875 C 2.113281 -3.394531 2.101562 -3.304688 2.09375 -3.203125 C 2.09375 -3.109375 2.09375 -2.984375 2.09375 -2.828125 Z M 2.09375 -1.515625 "/></g></g></g><g fill="#564162" fill-opacity="1"><g transform="translate(187.493562, 120.389195)"><g><path d="M 2.21875 -1.546875 C 2.21875 -1.296875 2.226562 -1.09375 2.25 -0.9375 C 2.269531 -0.78125 2.3125 -0.660156 2.375 -0.578125 C 2.4375 -0.492188 2.523438 -0.429688 2.640625 -0.390625 C 2.765625 -0.359375 2.921875 -0.34375 3.109375 -0.34375 L 3.109375 0 L 0.328125 0 L 0.328125 -0.34375 C 0.523438 -0.34375 0.679688 -0.359375 0.796875 -0.390625 C 0.921875 -0.429688 1.015625 -0.492188 1.078125 -0.578125 C 1.148438 -0.660156 1.195312 -0.773438 1.21875 -0.921875 C 1.25 -1.066406 1.265625 -1.25 1.265625 -1.46875 L 1.265625 -2.71875 C 1.265625 -3.09375 1.257812 -3.398438 1.25 -3.640625 C 1.238281 -3.878906 1.21875 -4.046875 1.1875 -4.140625 C 1.15625 -4.285156 1.082031 -4.382812 0.96875 -4.4375 C 0.851562 -4.5 0.632812 -4.53125 0.3125 -4.53125 L 0.3125 -4.875 L 2.21875 -5.234375 Z M 1.09375 -7.203125 C 1.09375 -7.378906 1.148438 -7.523438 1.265625 -7.640625 C 1.390625 -7.753906 1.535156 -7.8125 1.703125 -7.8125 C 1.867188 -7.8125 2.007812 -7.753906 2.125 -7.640625 C 2.238281 -7.523438 2.296875 -7.378906 2.296875 -7.203125 C 2.296875 -7.035156 2.238281 -6.894531 2.125 -6.78125 C 2.007812 -6.664062 1.867188 -6.609375 1.703125 -6.609375 C 1.535156 -6.609375 1.390625 -6.664062 1.265625 -6.78125 C 1.148438 -6.894531 1.09375 -7.035156 1.09375 -7.203125 Z M 1.09375 -7.203125 "/></g></g></g><g fill="#564162" fill-opacity="1"><g transform="translate(192.256742, 120.389195)"><g><path d="M 2.09375 -1.515625 C 2.09375 -1.253906 2.097656 -1.046875 2.109375 -0.890625 C 2.128906 -0.742188 2.164062 -0.628906 2.21875 -0.546875 C 2.269531 -0.460938 2.347656 -0.40625 2.453125 -0.375 C 2.566406 -0.351562 2.71875 -0.335938 2.90625 -0.328125 L 2.90625 0 L 0.359375 0 L 0.359375 -0.328125 C 0.535156 -0.335938 0.675781 -0.351562 0.78125 -0.375 C 0.894531 -0.40625 0.976562 -0.457031 1.03125 -0.53125 C 1.09375 -0.613281 1.128906 -0.726562 1.140625 -0.875 C 1.160156 -1.019531 1.171875 -1.210938 1.171875 -1.453125 L 1.171875 -2.75 C 1.171875 -3.519531 1.148438 -3.988281 1.109375 -4.15625 C 1.097656 -4.238281 1.078125 -4.304688 1.046875 -4.359375 C 1.015625 -4.410156 0.96875 -4.453125 0.90625 -4.484375 C 0.851562 -4.515625 0.78125 -4.535156 0.6875 -4.546875 C 0.59375 -4.554688 0.476562 -4.5625 0.34375 -4.5625 L 0.34375 -4.875 L 1.890625 -5.234375 L 2.015625 -4.28125 L 2.046875 -4.28125 C 2.296875 -4.582031 2.582031 -4.816406 2.90625 -4.984375 C 3.238281 -5.148438 3.597656 -5.234375 3.984375 -5.234375 C 4.285156 -5.234375 4.554688 -5.1875 4.796875 -5.09375 C 5.046875 -5 5.234375 -4.867188 5.359375 -4.703125 C 5.472656 -4.546875 5.550781 -4.347656 5.59375 -4.109375 C 5.644531 -3.878906 5.671875 -3.554688 5.671875 -3.140625 L 5.671875 -1.515625 C 5.671875 -1.253906 5.675781 -1.046875 5.6875 -0.890625 C 5.707031 -0.742188 5.742188 -0.628906 5.796875 -0.546875 C 5.847656 -0.460938 5.925781 -0.40625 6.03125 -0.375 C 6.132812 -0.351562 6.273438 -0.335938 6.453125 -0.328125 L 6.453125 0 L 3.9375 0 L 3.9375 -0.328125 C 4.125 -0.335938 4.269531 -0.351562 4.375 -0.375 C 4.476562 -0.40625 4.554688 -0.457031 4.609375 -0.53125 C 4.671875 -0.613281 4.707031 -0.726562 4.71875 -0.875 C 4.738281 -1.019531 4.75 -1.210938 4.75 -1.453125 L 4.75 -2.734375 C 4.75 -3.109375 4.726562 -3.421875 4.6875 -3.671875 C 4.644531 -3.921875 4.578125 -4.125 4.484375 -4.28125 C 4.398438 -4.4375 4.285156 -4.546875 4.140625 -4.609375 C 4.003906 -4.679688 3.835938 -4.71875 3.640625 -4.71875 C 3.347656 -4.71875 3.078125 -4.640625 2.828125 -4.484375 C 2.585938 -4.335938 2.398438 -4.128906 2.265625 -3.859375 C 2.234375 -3.796875 2.207031 -3.734375 2.1875 -3.671875 C 2.164062 -3.617188 2.144531 -3.550781 2.125 -3.46875 C 2.113281 -3.394531 2.101562 -3.304688 2.09375 -3.203125 C 2.09375 -3.109375 2.09375 -2.984375 2.09375 -2.828125 Z M 2.09375 -1.515625 "/></g></g></g><g fill="#564162" fill-opacity="1"><g transform="translate(200.395125, 120.389195)"><g><path d="M 2.65625 -2.09375 C 2.925781 -2.09375 3.132812 -2.210938 3.28125 -2.453125 C 3.4375 -2.703125 3.515625 -3.050781 3.515625 -3.5 C 3.515625 -3.9375 3.4375 -4.273438 3.28125 -4.515625 C 3.132812 -4.753906 2.925781 -4.875 2.65625 -4.875 C 2.375 -4.875 2.148438 -4.75 1.984375 -4.5 C 1.816406 -4.257812 1.734375 -3.925781 1.734375 -3.5 C 1.734375 -3.070312 1.816406 -2.726562 1.984375 -2.46875 C 2.148438 -2.21875 2.375 -2.09375 2.65625 -2.09375 Z M 2.125 -0.953125 C 2.28125 -0.941406 2.421875 -0.925781 2.546875 -0.90625 C 2.679688 -0.894531 2.8125 -0.882812 2.9375 -0.875 C 3.0625 -0.863281 3.1875 -0.847656 3.3125 -0.828125 C 3.4375 -0.804688 3.570312 -0.785156 3.71875 -0.765625 C 4.1875 -0.691406 4.5625 -0.507812 4.84375 -0.21875 C 5.125 0.0625 5.265625 0.421875 5.265625 0.859375 C 5.265625 1.398438 5.050781 1.8125 4.625 2.09375 C 4.195312 2.375 3.570312 2.515625 2.75 2.515625 C 2.394531 2.515625 2.066406 2.484375 1.765625 2.421875 C 1.460938 2.359375 1.203125 2.265625 0.984375 2.140625 C 0.773438 2.023438 0.609375 1.882812 0.484375 1.71875 C 0.367188 1.550781 0.3125 1.367188 0.3125 1.171875 C 0.3125 1.023438 0.332031 0.894531 0.375 0.78125 C 0.425781 0.664062 0.488281 0.5625 0.5625 0.46875 C 0.632812 0.382812 0.722656 0.316406 0.828125 0.265625 C 0.941406 0.210938 1.054688 0.1875 1.171875 0.1875 C 1.390625 0.1875 1.585938 0.253906 1.765625 0.390625 C 1.585938 0.429688 1.441406 0.523438 1.328125 0.671875 C 1.222656 0.828125 1.171875 1.003906 1.171875 1.203125 C 1.171875 1.484375 1.3125 1.703125 1.59375 1.859375 C 1.875 2.015625 2.273438 2.09375 2.796875 2.09375 C 3.898438 2.09375 4.453125 1.753906 4.453125 1.078125 C 4.453125 0.816406 4.363281 0.597656 4.1875 0.421875 C 4.019531 0.253906 3.816406 0.15625 3.578125 0.125 C 3.421875 0.101562 3.257812 0.0820312 3.09375 0.0625 C 2.925781 0.0390625 2.765625 0.0195312 2.609375 0 C 2.453125 -0.0195312 2.300781 -0.0351562 2.15625 -0.046875 C 2.019531 -0.0546875 1.910156 -0.0703125 1.828125 -0.09375 C 1.472656 -0.125 1.203125 -0.21875 1.015625 -0.375 C 0.828125 -0.53125 0.734375 -0.742188 0.734375 -1.015625 C 0.734375 -1.242188 0.828125 -1.441406 1.015625 -1.609375 C 1.203125 -1.785156 1.4375 -1.898438 1.71875 -1.953125 L 1.71875 -1.984375 C 1.570312 -2.046875 1.4375 -2.128906 1.3125 -2.234375 C 1.195312 -2.335938 1.09375 -2.457031 1 -2.59375 C 0.914062 -2.726562 0.847656 -2.875 0.796875 -3.03125 C 0.742188 -3.195312 0.71875 -3.363281 0.71875 -3.53125 C 0.71875 -3.78125 0.765625 -4.003906 0.859375 -4.203125 C 0.953125 -4.410156 1.082031 -4.59375 1.25 -4.75 C 1.425781 -4.90625 1.628906 -5.023438 1.859375 -5.109375 C 2.097656 -5.191406 2.351562 -5.234375 2.625 -5.234375 C 2.914062 -5.234375 3.1875 -5.191406 3.4375 -5.109375 C 3.6875 -5.023438 3.898438 -4.894531 4.078125 -4.71875 C 4.304688 -4.90625 4.503906 -5.035156 4.671875 -5.109375 C 4.835938 -5.191406 4.992188 -5.234375 5.140625 -5.234375 C 5.367188 -5.234375 5.550781 -5.179688 5.6875 -5.078125 C 5.832031 -4.972656 5.90625 -4.828125 5.90625 -4.640625 C 5.90625 -4.535156 5.867188 -4.445312 5.796875 -4.375 C 5.722656 -4.3125 5.628906 -4.28125 5.515625 -4.28125 C 5.429688 -4.28125 5.359375 -4.296875 5.296875 -4.328125 C 5.234375 -4.367188 5.175781 -4.40625 5.125 -4.4375 C 5.082031 -4.476562 5.035156 -4.515625 4.984375 -4.546875 C 4.929688 -4.578125 4.867188 -4.59375 4.796875 -4.59375 C 4.640625 -4.59375 4.476562 -4.535156 4.3125 -4.421875 C 4.46875 -4.179688 4.546875 -3.878906 4.546875 -3.515625 C 4.546875 -2.972656 4.375 -2.539062 4.03125 -2.21875 C 3.6875 -1.90625 3.175781 -1.722656 2.5 -1.671875 C 2.101562 -1.640625 1.828125 -1.597656 1.671875 -1.546875 C 1.515625 -1.492188 1.4375 -1.398438 1.4375 -1.265625 C 1.4375 -1.160156 1.492188 -1.082031 1.609375 -1.03125 C 1.722656 -0.988281 1.894531 -0.960938 2.125 -0.953125 Z M 2.125 -0.953125 "/></g></g></g><g fill="#564162" fill-opacity="1"><g transform="translate(207.660601, 120.389195)"><g/></g></g><g fill="#564162" fill-opacity="1"><g transform="translate(211.900044, 120.389195)"><g><path d="M 2.515625 -4.109375 C 2.867188 -4.109375 3.160156 -4.128906 3.390625 -4.171875 C 3.628906 -4.210938 3.816406 -4.273438 3.953125 -4.359375 C 4.097656 -4.453125 4.203125 -4.566406 4.265625 -4.703125 C 4.328125 -4.847656 4.359375 -5.019531 4.359375 -5.21875 L 4.703125 -5.21875 L 4.703125 -2.578125 L 4.359375 -2.578125 C 4.359375 -2.765625 4.328125 -2.929688 4.265625 -3.078125 C 4.210938 -3.222656 4.117188 -3.34375 3.984375 -3.4375 C 3.847656 -3.53125 3.660156 -3.597656 3.421875 -3.640625 C 3.179688 -3.691406 2.878906 -3.71875 2.515625 -3.71875 L 2.515625 -1.515625 C 2.515625 -1.304688 2.539062 -1.128906 2.59375 -0.984375 C 2.644531 -0.847656 2.734375 -0.738281 2.859375 -0.65625 C 2.992188 -0.570312 3.160156 -0.507812 3.359375 -0.46875 C 3.566406 -0.4375 3.828125 -0.421875 4.140625 -0.421875 C 4.472656 -0.421875 4.757812 -0.441406 5 -0.484375 C 5.238281 -0.535156 5.4375 -0.617188 5.59375 -0.734375 C 5.757812 -0.847656 5.890625 -1 5.984375 -1.1875 C 6.085938 -1.382812 6.171875 -1.625 6.234375 -1.90625 L 6.609375 -1.90625 L 6.46875 0 L 0.4375 0 L 0.4375 -0.375 C 0.664062 -0.375 0.847656 -0.390625 0.984375 -0.421875 C 1.117188 -0.453125 1.222656 -0.503906 1.296875 -0.578125 C 1.378906 -0.660156 1.429688 -0.773438 1.453125 -0.921875 C 1.484375 -1.066406 1.5 -1.25 1.5 -1.46875 L 1.5 -6 C 1.5 -6.226562 1.488281 -6.410156 1.46875 -6.546875 C 1.445312 -6.679688 1.398438 -6.789062 1.328125 -6.875 C 1.265625 -6.957031 1.164062 -7.007812 1.03125 -7.03125 C 0.90625 -7.0625 0.738281 -7.085938 0.53125 -7.109375 L 0.53125 -7.46875 L 6.140625 -7.46875 L 6.234375 -5.765625 L 5.890625 -5.765625 C 5.847656 -6.023438 5.78125 -6.234375 5.6875 -6.390625 C 5.601562 -6.554688 5.484375 -6.6875 5.328125 -6.78125 C 5.179688 -6.882812 4.992188 -6.953125 4.765625 -6.984375 C 4.535156 -7.023438 4.253906 -7.046875 3.921875 -7.046875 L 2.6875 -7.046875 C 2.570312 -7.046875 2.515625 -6.992188 2.515625 -6.890625 Z M 2.515625 -4.109375 "/></g></g></g><g fill="#564162" fill-opacity="1"><g transform="translate(220.397285, 120.389195)"><g><path d="M 4.90625 -0.8125 C 4.675781 -0.519531 4.375 -0.296875 4 -0.140625 C 3.632812 0.015625 3.238281 0.09375 2.8125 0.09375 C 2.46875 0.09375 2.148438 0.03125 1.859375 -0.09375 C 1.578125 -0.21875 1.332031 -0.394531 1.125 -0.625 C 0.914062 -0.851562 0.753906 -1.128906 0.640625 -1.453125 C 0.523438 -1.773438 0.46875 -2.132812 0.46875 -2.53125 C 0.46875 -2.945312 0.53125 -3.320312 0.65625 -3.65625 C 0.789062 -3.988281 0.976562 -4.269531 1.21875 -4.5 C 1.457031 -4.738281 1.742188 -4.921875 2.078125 -5.046875 C 2.410156 -5.171875 2.773438 -5.234375 3.171875 -5.234375 C 3.421875 -5.234375 3.648438 -5.210938 3.859375 -5.171875 C 4.066406 -5.128906 4.242188 -5.070312 4.390625 -5 C 4.546875 -4.925781 4.664062 -4.832031 4.75 -4.71875 C 4.832031 -4.613281 4.875 -4.503906 4.875 -4.390625 C 4.875 -4.253906 4.832031 -4.148438 4.75 -4.078125 C 4.664062 -4.015625 4.550781 -3.984375 4.40625 -3.984375 C 4.289062 -3.984375 4.191406 -4.003906 4.109375 -4.046875 C 4.035156 -4.097656 3.9375 -4.207031 3.8125 -4.375 C 3.6875 -4.519531 3.5625 -4.625 3.4375 -4.6875 C 3.320312 -4.75 3.171875 -4.78125 2.984375 -4.78125 C 2.523438 -4.78125 2.175781 -4.601562 1.9375 -4.25 C 1.695312 -3.894531 1.578125 -3.367188 1.578125 -2.671875 C 1.578125 -1.929688 1.707031 -1.367188 1.96875 -0.984375 C 2.238281 -0.597656 2.625 -0.40625 3.125 -0.40625 C 3.394531 -0.40625 3.648438 -0.457031 3.890625 -0.5625 C 4.128906 -0.675781 4.375 -0.851562 4.625 -1.09375 Z M 4.90625 -0.8125 "/></g></g></g><g fill="#564162" fill-opacity="1"><g transform="translate(227.051735, 120.389195)"><g><path d="M 3.15625 -5.234375 C 3.519531 -5.234375 3.867188 -5.164062 4.203125 -5.03125 C 4.535156 -4.90625 4.820312 -4.722656 5.0625 -4.484375 C 5.3125 -4.253906 5.507812 -3.976562 5.65625 -3.65625 C 5.800781 -3.34375 5.875 -2.992188 5.875 -2.609375 C 5.875 -2.210938 5.800781 -1.847656 5.65625 -1.515625 C 5.507812 -1.191406 5.3125 -0.910156 5.0625 -0.671875 C 4.820312 -0.429688 4.535156 -0.242188 4.203125 -0.109375 C 3.867188 0.0234375 3.519531 0.09375 3.15625 0.09375 C 2.789062 0.09375 2.441406 0.03125 2.109375 -0.09375 C 1.785156 -0.226562 1.5 -0.414062 1.25 -0.65625 C 1.007812 -0.894531 0.816406 -1.179688 0.671875 -1.515625 C 0.535156 -1.847656 0.46875 -2.210938 0.46875 -2.609375 C 0.46875 -2.992188 0.535156 -3.347656 0.671875 -3.671875 C 0.816406 -3.992188 1.007812 -4.269531 1.25 -4.5 C 1.5 -4.738281 1.785156 -4.921875 2.109375 -5.046875 C 2.441406 -5.171875 2.789062 -5.234375 3.15625 -5.234375 Z M 3.15625 -4.78125 C 2.914062 -4.78125 2.695312 -4.726562 2.5 -4.625 C 2.300781 -4.519531 2.128906 -4.367188 1.984375 -4.171875 C 1.847656 -3.984375 1.742188 -3.753906 1.671875 -3.484375 C 1.597656 -3.210938 1.5625 -2.914062 1.5625 -2.59375 C 1.5625 -2.257812 1.597656 -1.957031 1.671875 -1.6875 C 1.742188 -1.414062 1.847656 -1.179688 1.984375 -0.984375 C 2.128906 -0.796875 2.296875 -0.648438 2.484375 -0.546875 C 2.679688 -0.441406 2.90625 -0.390625 3.15625 -0.390625 C 3.394531 -0.390625 3.613281 -0.441406 3.8125 -0.546875 C 4.019531 -0.648438 4.191406 -0.800781 4.328125 -1 C 4.472656 -1.195312 4.582031 -1.429688 4.65625 -1.703125 C 4.738281 -1.972656 4.78125 -2.269531 4.78125 -2.59375 C 4.78125 -2.914062 4.738281 -3.207031 4.65625 -3.46875 C 4.582031 -3.738281 4.472656 -3.96875 4.328125 -4.15625 C 4.191406 -4.351562 4.019531 -4.503906 3.8125 -4.609375 C 3.613281 -4.722656 3.394531 -4.78125 3.15625 -4.78125 Z M 3.15625 -4.78125 "/></g></g></g><g fill="#564162" fill-opacity="1"><g transform="translate(234.850648, 120.389195)"><g><path d="M 0.828125 0 L 0.625 0 L 0.625 -1.671875 L 0.859375 -1.671875 C 1.109375 -0.753906 1.566406 -0.296875 2.234375 -0.296875 C 2.492188 -0.296875 2.695312 -0.359375 2.84375 -0.484375 C 3 -0.609375 3.078125 -0.800781 3.078125 -1.0625 C 3.078125 -1.164062 3.0625 -1.25 3.03125 -1.3125 C 3.007812 -1.382812 2.957031 -1.457031 2.875 -1.53125 C 2.789062 -1.601562 2.675781 -1.6875 2.53125 -1.78125 C 2.382812 -1.882812 2.191406 -2.007812 1.953125 -2.15625 C 1.734375 -2.289062 1.539062 -2.414062 1.375 -2.53125 C 1.21875 -2.644531 1.082031 -2.757812 0.96875 -2.875 C 0.863281 -3 0.785156 -3.128906 0.734375 -3.265625 C 0.679688 -3.398438 0.65625 -3.5625 0.65625 -3.75 C 0.65625 -3.96875 0.691406 -4.164062 0.765625 -4.34375 C 0.835938 -4.53125 0.9375 -4.6875 1.0625 -4.8125 C 1.195312 -4.945312 1.347656 -5.050781 1.515625 -5.125 C 1.691406 -5.195312 1.882812 -5.234375 2.09375 -5.234375 C 2.269531 -5.234375 2.453125 -5.207031 2.640625 -5.15625 C 2.828125 -5.101562 2.992188 -5.03125 3.140625 -4.9375 L 3.328125 -5.140625 L 3.515625 -5.140625 L 3.515625 -3.75 L 3.265625 -3.75 C 3.117188 -4.144531 2.960938 -4.425781 2.796875 -4.59375 C 2.628906 -4.757812 2.421875 -4.84375 2.171875 -4.84375 C 1.953125 -4.84375 1.773438 -4.785156 1.640625 -4.671875 C 1.515625 -4.554688 1.453125 -4.394531 1.453125 -4.1875 C 1.453125 -4.070312 1.46875 -3.972656 1.5 -3.890625 C 1.53125 -3.816406 1.582031 -3.738281 1.65625 -3.65625 C 1.738281 -3.582031 1.835938 -3.503906 1.953125 -3.421875 C 2.078125 -3.335938 2.222656 -3.242188 2.390625 -3.140625 C 2.671875 -2.960938 2.910156 -2.804688 3.109375 -2.671875 C 3.304688 -2.535156 3.46875 -2.398438 3.59375 -2.265625 C 3.71875 -2.140625 3.804688 -2.003906 3.859375 -1.859375 C 3.921875 -1.722656 3.953125 -1.5625 3.953125 -1.375 C 3.953125 -0.914062 3.800781 -0.554688 3.5 -0.296875 C 3.207031 -0.0351562 2.816406 0.09375 2.328125 0.09375 C 1.828125 0.09375 1.394531 -0.0507812 1.03125 -0.34375 Z M 0.828125 0 "/></g></g></g><g fill="#564162" fill-opacity="1"><g transform="translate(240.709792, 120.389195)"><g><path d="M 2.734375 1.515625 C 2.429688 2.179688 1.96875 2.515625 1.34375 2.515625 C 0.9375 2.515625 0.734375 2.363281 0.734375 2.0625 C 0.734375 1.90625 0.785156 1.785156 0.890625 1.703125 C 1.003906 1.628906 1.210938 1.566406 1.515625 1.515625 C 1.660156 1.503906 1.78125 1.476562 1.875 1.4375 C 1.96875 1.40625 2.050781 1.359375 2.125 1.296875 C 2.207031 1.242188 2.28125 1.175781 2.34375 1.09375 C 2.40625 1.007812 2.460938 0.90625 2.515625 0.78125 L 2.859375 0.109375 L 1 -3.9375 C 0.914062 -4.125 0.84375 -4.269531 0.78125 -4.375 C 0.71875 -4.476562 0.648438 -4.5625 0.578125 -4.625 C 0.515625 -4.6875 0.441406 -4.726562 0.359375 -4.75 C 0.273438 -4.769531 0.164062 -4.785156 0.03125 -4.796875 L 0.03125 -5.140625 L 2.609375 -5.140625 L 2.609375 -4.796875 C 2.171875 -4.796875 1.953125 -4.691406 1.953125 -4.484375 C 1.953125 -4.398438 1.976562 -4.265625 2.03125 -4.078125 C 2.082031 -3.898438 2.148438 -3.71875 2.234375 -3.53125 L 3.296875 -0.953125 L 3.34375 -0.953125 L 4.234375 -3.140625 C 4.316406 -3.347656 4.382812 -3.519531 4.4375 -3.65625 C 4.488281 -3.789062 4.53125 -3.898438 4.5625 -3.984375 C 4.59375 -4.078125 4.613281 -4.148438 4.625 -4.203125 C 4.632812 -4.265625 4.640625 -4.320312 4.640625 -4.375 C 4.640625 -4.539062 4.59375 -4.648438 4.5 -4.703125 C 4.40625 -4.765625 4.222656 -4.796875 3.953125 -4.796875 L 3.953125 -5.140625 L 6.09375 -5.140625 L 6.09375 -4.796875 C 5.96875 -4.796875 5.863281 -4.78125 5.78125 -4.75 C 5.695312 -4.71875 5.609375 -4.644531 5.515625 -4.53125 C 5.429688 -4.414062 5.335938 -4.25 5.234375 -4.03125 C 5.128906 -3.820312 5 -3.539062 4.84375 -3.1875 Z M 2.734375 1.515625 "/></g></g></g><g fill="#564162" fill-opacity="1"><g transform="translate(248.363227, 120.389195)"><g><path d="M 0.828125 0 L 0.625 0 L 0.625 -1.671875 L 0.859375 -1.671875 C 1.109375 -0.753906 1.566406 -0.296875 2.234375 -0.296875 C 2.492188 -0.296875 2.695312 -0.359375 2.84375 -0.484375 C 3 -0.609375 3.078125 -0.800781 3.078125 -1.0625 C 3.078125 -1.164062 3.0625 -1.25 3.03125 -1.3125 C 3.007812 -1.382812 2.957031 -1.457031 2.875 -1.53125 C 2.789062 -1.601562 2.675781 -1.6875 2.53125 -1.78125 C 2.382812 -1.882812 2.191406 -2.007812 1.953125 -2.15625 C 1.734375 -2.289062 1.539062 -2.414062 1.375 -2.53125 C 1.21875 -2.644531 1.082031 -2.757812 0.96875 -2.875 C 0.863281 -3 0.785156 -3.128906 0.734375 -3.265625 C 0.679688 -3.398438 0.65625 -3.5625 0.65625 -3.75 C 0.65625 -3.96875 0.691406 -4.164062 0.765625 -4.34375 C 0.835938 -4.53125 0.9375 -4.6875 1.0625 -4.8125 C 1.195312 -4.945312 1.347656 -5.050781 1.515625 -5.125 C 1.691406 -5.195312 1.882812 -5.234375 2.09375 -5.234375 C 2.269531 -5.234375 2.453125 -5.207031 2.640625 -5.15625 C 2.828125 -5.101562 2.992188 -5.03125 3.140625 -4.9375 L 3.328125 -5.140625 L 3.515625 -5.140625 L 3.515625 -3.75 L 3.265625 -3.75 C 3.117188 -4.144531 2.960938 -4.425781 2.796875 -4.59375 C 2.628906 -4.757812 2.421875 -4.84375 2.171875 -4.84375 C 1.953125 -4.84375 1.773438 -4.785156 1.640625 -4.671875 C 1.515625 -4.554688 1.453125 -4.394531 1.453125 -4.1875 C 1.453125 -4.070312 1.46875 -3.972656 1.5 -3.890625 C 1.53125 -3.816406 1.582031 -3.738281 1.65625 -3.65625 C 1.738281 -3.582031 1.835938 -3.503906 1.953125 -3.421875 C 2.078125 -3.335938 2.222656 -3.242188 2.390625 -3.140625 C 2.671875 -2.960938 2.910156 -2.804688 3.109375 -2.671875 C 3.304688 -2.535156 3.46875 -2.398438 3.59375 -2.265625 C 3.71875 -2.140625 3.804688 -2.003906 3.859375 -1.859375 C 3.921875 -1.722656 3.953125 -1.5625 3.953125 -1.375 C 3.953125 -0.914062 3.800781 -0.554688 3.5 -0.296875 C 3.207031 -0.0351562 2.816406 0.09375 2.328125 0.09375 C 1.828125 0.09375 1.394531 -0.0507812 1.03125 -0.34375 Z M 0.828125 0 "/></g></g></g><g fill="#564162" fill-opacity="1"><g transform="translate(254.222376, 120.389195)"><g><path d="M 0.390625 -4.53125 L 0.390625 -4.890625 C 0.734375 -5.085938 1 -5.285156 1.1875 -5.484375 C 1.382812 -5.691406 1.535156 -5.929688 1.640625 -6.203125 L 1.921875 -6.203125 L 1.921875 -4.984375 L 3.21875 -4.984375 L 3.21875 -4.53125 L 1.921875 -4.53125 L 1.921875 -1.578125 C 1.921875 -1.347656 1.929688 -1.15625 1.953125 -1 C 1.972656 -0.851562 2.007812 -0.734375 2.0625 -0.640625 C 2.113281 -0.546875 2.179688 -0.476562 2.265625 -0.4375 C 2.347656 -0.394531 2.457031 -0.375 2.59375 -0.375 C 2.75 -0.375 2.882812 -0.40625 3 -0.46875 C 3.113281 -0.539062 3.226562 -0.660156 3.34375 -0.828125 L 3.578125 -0.640625 C 3.484375 -0.398438 3.328125 -0.21875 3.109375 -0.09375 C 2.890625 0.03125 2.613281 0.09375 2.28125 0.09375 C 1.851562 0.09375 1.523438 -0.00390625 1.296875 -0.203125 C 1.078125 -0.410156 0.96875 -0.707031 0.96875 -1.09375 L 0.96875 -4.53125 Z M 0.390625 -4.53125 "/></g></g></g><g fill="#564162" fill-opacity="1"><g transform="translate(259.34442, 120.389195)"><g><path d="M 5.0625 -0.90625 C 4.507812 -0.238281 3.828125 0.09375 3.015625 0.09375 C 2.628906 0.09375 2.28125 0.03125 1.96875 -0.09375 C 1.664062 -0.21875 1.398438 -0.394531 1.171875 -0.625 C 0.953125 -0.851562 0.78125 -1.128906 0.65625 -1.453125 C 0.53125 -1.773438 0.46875 -2.128906 0.46875 -2.515625 C 0.46875 -2.910156 0.53125 -3.273438 0.65625 -3.609375 C 0.789062 -3.941406 0.976562 -4.226562 1.21875 -4.46875 C 1.457031 -4.707031 1.738281 -4.894531 2.0625 -5.03125 C 2.382812 -5.164062 2.742188 -5.234375 3.140625 -5.234375 C 3.765625 -5.234375 4.25 -5.0625 4.59375 -4.71875 C 4.9375 -4.382812 5.109375 -3.898438 5.109375 -3.265625 C 5.109375 -3.179688 5.085938 -3.128906 5.046875 -3.109375 C 5.015625 -3.085938 4.929688 -3.078125 4.796875 -3.078125 L 1.609375 -3.078125 C 1.597656 -3.023438 1.585938 -2.960938 1.578125 -2.890625 C 1.578125 -2.816406 1.578125 -2.734375 1.578125 -2.640625 C 1.578125 -2.304688 1.613281 -2 1.6875 -1.71875 C 1.769531 -1.445312 1.882812 -1.210938 2.03125 -1.015625 C 2.1875 -0.828125 2.367188 -0.675781 2.578125 -0.5625 C 2.796875 -0.457031 3.035156 -0.40625 3.296875 -0.40625 C 3.566406 -0.40625 3.816406 -0.460938 4.046875 -0.578125 C 4.273438 -0.703125 4.515625 -0.898438 4.765625 -1.171875 Z M 3.46875 -3.515625 C 3.59375 -3.515625 3.691406 -3.519531 3.765625 -3.53125 C 3.847656 -3.539062 3.90625 -3.550781 3.9375 -3.5625 C 3.976562 -3.582031 4.003906 -3.609375 4.015625 -3.640625 C 4.035156 -3.679688 4.046875 -3.734375 4.046875 -3.796875 C 4.046875 -4.085938 3.945312 -4.320312 3.75 -4.5 C 3.5625 -4.6875 3.304688 -4.78125 2.984375 -4.78125 C 2.285156 -4.78125 1.847656 -4.359375 1.671875 -3.515625 Z M 3.46875 -3.515625 "/></g></g></g><g fill="#564162" fill-opacity="1"><g transform="translate(266.357734, 120.389195)"><g><path d="M 2.140625 -1.546875 C 2.140625 -1.273438 2.144531 -1.0625 2.15625 -0.90625 C 2.175781 -0.75 2.210938 -0.628906 2.265625 -0.546875 C 2.316406 -0.472656 2.394531 -0.421875 2.5 -0.390625 C 2.601562 -0.367188 2.75 -0.351562 2.9375 -0.34375 L 2.9375 0 L 0.359375 0 L 0.359375 -0.34375 C 0.546875 -0.351562 0.691406 -0.367188 0.796875 -0.390625 C 0.910156 -0.421875 0.992188 -0.472656 1.046875 -0.546875 C 1.109375 -0.628906 1.144531 -0.742188 1.15625 -0.890625 C 1.175781 -1.035156 1.1875 -1.226562 1.1875 -1.46875 L 1.1875 -2.71875 C 1.1875 -3.082031 1.179688 -3.382812 1.171875 -3.625 C 1.171875 -3.875 1.15625 -4.046875 1.125 -4.140625 C 1.101562 -4.222656 1.078125 -4.289062 1.046875 -4.34375 C 1.023438 -4.394531 0.984375 -4.429688 0.921875 -4.453125 C 0.867188 -4.484375 0.796875 -4.503906 0.703125 -4.515625 C 0.609375 -4.523438 0.488281 -4.53125 0.34375 -4.53125 L 0.34375 -4.875 L 1.921875 -5.234375 L 2.046875 -4.265625 L 2.09375 -4.265625 C 2.382812 -4.597656 2.691406 -4.84375 3.015625 -5 C 3.335938 -5.15625 3.691406 -5.234375 4.078125 -5.234375 C 4.484375 -5.234375 4.820312 -5.148438 5.09375 -4.984375 C 5.375 -4.828125 5.570312 -4.59375 5.6875 -4.28125 L 5.71875 -4.28125 C 5.957031 -4.582031 6.25 -4.816406 6.59375 -4.984375 C 6.9375 -5.148438 7.300781 -5.234375 7.6875 -5.234375 C 8 -5.234375 8.273438 -5.179688 8.515625 -5.078125 C 8.765625 -4.984375 8.957031 -4.847656 9.09375 -4.671875 C 9.207031 -4.523438 9.285156 -4.328125 9.328125 -4.078125 C 9.378906 -3.835938 9.40625 -3.507812 9.40625 -3.09375 L 9.40625 -1.546875 C 9.40625 -1.285156 9.410156 -1.078125 9.421875 -0.921875 C 9.441406 -0.765625 9.476562 -0.644531 9.53125 -0.5625 C 9.582031 -0.476562 9.660156 -0.421875 9.765625 -0.390625 C 9.878906 -0.367188 10.03125 -0.351562 10.21875 -0.34375 L 10.21875 0 L 7.640625 0 L 7.640625 -0.34375 C 7.816406 -0.34375 7.957031 -0.359375 8.0625 -0.390625 C 8.175781 -0.421875 8.257812 -0.472656 8.3125 -0.546875 C 8.375 -0.628906 8.414062 -0.742188 8.4375 -0.890625 C 8.457031 -1.035156 8.46875 -1.226562 8.46875 -1.46875 L 8.46875 -2.703125 C 8.46875 -3.066406 8.445312 -3.375 8.40625 -3.625 C 8.363281 -3.882812 8.296875 -4.09375 8.203125 -4.25 C 8.117188 -4.414062 8.003906 -4.53125 7.859375 -4.59375 C 7.710938 -4.664062 7.535156 -4.703125 7.328125 -4.703125 C 7.046875 -4.703125 6.78125 -4.625 6.53125 -4.46875 C 6.28125 -4.3125 6.082031 -4.097656 5.9375 -3.828125 C 5.90625 -3.765625 5.878906 -3.703125 5.859375 -3.640625 C 5.835938 -3.578125 5.816406 -3.507812 5.796875 -3.4375 C 5.785156 -3.363281 5.773438 -3.273438 5.765625 -3.171875 C 5.765625 -3.066406 5.765625 -2.9375 5.765625 -2.78125 L 5.765625 -1.546875 C 5.765625 -1.285156 5.769531 -1.078125 5.78125 -0.921875 C 5.800781 -0.765625 5.835938 -0.644531 5.890625 -0.5625 C 5.953125 -0.476562 6.035156 -0.421875 6.140625 -0.390625 C 6.253906 -0.367188 6.40625 -0.351562 6.59375 -0.34375 L 6.59375 0 L 4 0 L 4 -0.34375 C 4.1875 -0.351562 4.332031 -0.367188 4.4375 -0.390625 C 4.550781 -0.421875 4.632812 -0.472656 4.6875 -0.546875 C 4.75 -0.628906 4.785156 -0.742188 4.796875 -0.890625 C 4.816406 -1.035156 4.828125 -1.226562 4.828125 -1.46875 L 4.828125 -2.703125 C 4.828125 -3.078125 4.804688 -3.390625 4.765625 -3.640625 C 4.722656 -3.898438 4.65625 -4.109375 4.5625 -4.265625 C 4.476562 -4.421875 4.363281 -4.53125 4.21875 -4.59375 C 4.082031 -4.664062 3.910156 -4.703125 3.703125 -4.703125 C 3.410156 -4.703125 3.132812 -4.625 2.875 -4.46875 C 2.625 -4.3125 2.4375 -4.097656 2.3125 -3.828125 C 2.28125 -3.765625 2.25 -3.703125 2.21875 -3.640625 C 2.195312 -3.578125 2.179688 -3.507812 2.171875 -3.4375 C 2.160156 -3.363281 2.148438 -3.273438 2.140625 -3.171875 C 2.140625 -3.066406 2.140625 -2.9375 2.140625 -2.78125 Z M 2.140625 -1.546875 "/></g></g></g><g clip-path="url(#2441097b59)"><path fill="url(#83825308c0)" d="M 24.757812 114.871094 L 24.757812 119.75 L 138.535156 119.75 L 138.535156 114.871094 Z M 24.757812 114.871094 " fill-rule="nonzero"/></g></svg>